<svg width="103" height="103" viewBox="0 0 103 103" fill="none" xmlns="http://www.w3.org/2000/svg">
<g clip-path="url(#clip0_20_113)">
<path d="M85.7085 78.4248L73.3318 43.7088C76.5568 40.7341 78.4647 36.8482 78.7462 32.6174C79.0429 28.1578 77.475 23.7045 74.4246 20.2628C74.521 14.4502 75.6001 9.60916 76.4754 5.6847C76.7194 4.58972 76.9503 3.5553 77.1473 2.56392C77.2722 1.93385 77.1086 1.28085 76.7009 0.784357C76.2935 0.287663 75.685 -0.000213623 75.0426 -0.000213623H67.6373C66.6654 -0.000213623 65.8151 0.65279 65.564 1.59186C63.3342 9.93707 60.0794 17.9916 51.5001 20.5931C42.9201 17.9914 39.6653 9.93667 37.4357 1.59186C37.1849 0.652992 36.3345 -1.24511e-05 35.3625 -1.24511e-05H27.9577C27.3152 -1.24511e-05 26.7066 0.287663 26.2991 0.784357C25.8917 1.28085 25.7279 1.93385 25.8531 2.56392C26.05 3.5553 26.2806 4.58952 26.525 5.6847C27.4001 9.60916 28.4792 14.4502 28.5757 20.2628C25.525 23.7045 23.9574 28.1578 24.2542 32.6174C24.5354 36.8478 26.4435 40.7341 29.6681 43.7088L17.2914 78.4248C16.9037 79.512 17.4457 80.7108 18.5177 81.1385C25.9967 84.1218 38.0059 85.833 51.4659 85.833C64.9703 85.833 77.0042 84.1216 84.4826 81.1385C85.5548 80.7106 86.0964 79.512 85.7085 78.4248ZM51.4659 81.5416C47.6889 81.5416 44.0034 81.3965 40.505 81.1224L41.8066 72.4681C41.9826 71.2963 41.1755 70.2031 40.0037 70.0271C38.8307 69.8503 37.7387 70.658 37.5629 71.8298L36.2271 80.7116C30.718 80.0805 25.8412 79.108 22.0505 77.8563L33.4159 45.9768C34.7268 46.4099 36.2005 46.6425 37.7252 46.6425C37.9192 46.6425 38.1143 46.6389 38.3096 46.6314C39.4941 46.5858 40.4169 45.5888 40.371 44.4045C40.3254 43.2202 39.335 42.2972 38.1439 42.343C36.3428 42.4137 34.5499 42.0107 33.4469 41.2923C30.511 38.9815 28.767 35.8032 28.5361 32.3329C28.3009 28.7994 29.6582 25.2533 32.2596 22.6037C32.6535 22.2023 32.874 21.6628 32.874 21.1003C32.874 14.4407 31.6762 9.06801 30.7136 4.75106C30.6792 4.59677 30.6454 4.44387 30.6112 4.29199H33.7275C34.7465 7.87325 36.1215 11.82 38.3599 15.3627C41.147 19.773 44.8419 22.8034 49.3544 24.3985V29.0729C49.3544 30.2581 50.315 31.2188 51.5003 31.2188C52.685 31.2188 53.6462 30.2583 53.6462 29.0729V24.3985C58.1587 22.803 61.8536 19.773 64.64 15.3627C66.8784 11.8198 68.2537 7.87305 69.2724 4.29199H72.3887C72.3554 4.44367 72.321 4.59677 72.2864 4.75106C71.3241 9.06801 70.126 14.4407 70.126 21.1003C70.126 21.6628 70.3469 22.2023 70.7407 22.6037C73.3421 25.2531 74.6992 28.7994 74.4638 32.3329C74.2333 35.8032 72.4895 38.9813 69.5534 41.2923C68.4506 42.0105 66.66 42.4133 64.8561 42.343C63.6641 42.3006 62.6746 43.2206 62.6289 44.4045C62.5832 45.5888 63.5062 46.5858 64.6903 46.6314C64.886 46.6389 65.0804 46.6425 65.2745 46.6425C66.7992 46.6425 68.273 46.4101 69.5838 45.9768L80.9496 77.8561C73.914 80.1785 63.1226 81.5416 51.4659 81.5416Z" fill="#E0E0E0"/>
<path d="M51.5002 34.652C50.315 34.652 49.3542 35.6128 49.3542 36.7979V38.0854C49.3542 39.2705 50.3148 40.2313 51.5002 40.2313C52.6849 40.2313 53.646 39.2707 53.646 38.0854V36.7979C53.646 35.6128 52.6851 34.652 51.5002 34.652Z" fill="#E0E0E0"/>
<path d="M41.2137 61.9793C40.04 61.8026 38.9487 62.6105 38.7728 63.7826L38.5864 65.0258C38.4103 66.1978 39.2174 67.2906 40.3893 67.4666C40.4975 67.4829 40.6047 67.4906 40.7107 67.4906C41.755 67.4906 42.6705 66.7271 42.8301 65.6631L43.0166 64.4199C43.1926 63.2478 42.3855 62.1553 41.2137 61.9793Z" fill="#E0E0E0"/>
</g>
<defs>
<clipPath id="clip0_20_113">
<rect width="103" height="103" fill="white"/>
</clipPath>
</defs>
</svg>
