<svg width="74" height="64" viewBox="0 0 74 64" fill="none" xmlns="http://www.w3.org/2000/svg">
<circle cx="32" cy="32" r="32" fill="#4CE0D7"/>
<path d="M23.0555 13.5555C23.5531 13.0578 24.2406 12.75 25 12.75H69C69.7594 12.75 70.4469 13.0578 70.9445 13.5555M23.0555 13.5555C22.5578 14.0531 22.25 14.7406 22.25 15.5V48.5C22.25 50.0188 23.4812 51.25 25 51.25H69C70.5188 51.25 71.75 50.0188 71.75 48.5V15.5C71.75 14.7406 71.4422 14.0531 70.9445 13.5555M23.0555 13.5555L43.1109 33.6108C45.2588 35.7587 48.7412 35.7587 50.8891 33.6108L70.9445 13.5555" stroke="#262626" stroke-width="2.6" stroke-linecap="round" stroke-linejoin="round"/>
</svg>
