<svg width="88" height="88" viewBox="0 0 88 88" fill="none" xmlns="http://www.w3.org/2000/svg">
<path d="M65.5569 57.206C65.5562 57.205 65.5556 57.2039 65.5553 57.2031C65.5426 57.1816 65.5309 57.1596 65.5182 57.1381C62.3522 51.7935 58.588 48.84 58.4292 48.7169C58.0738 48.4411 57.6362 48.2912 57.1862 48.2912H43.9999H30.8137C30.3637 48.2912 29.9263 48.4409 29.5707 48.7169C29.4119 48.84 25.6476 51.7935 22.4817 57.1383C22.4695 57.1587 22.4585 57.1795 22.4465 57.2C22.4451 57.2024 22.4436 57.2048 22.4424 57.2072C19.5952 62.0398 18.1506 67.2203 18.1506 72.607C18.1506 73.1483 18.3699 73.6673 18.7544 74.0479C19.1344 74.4241 19.6501 74.635 20.1839 74.635C20.1906 74.635 20.1973 74.635 20.204 74.6348C20.2358 74.635 23.6285 74.6188 27.5036 76.1382C32.5354 78.1113 36.0217 81.6552 37.8659 86.6716C38.1593 87.4696 38.9193 87.9996 39.7694 87.9996H43.9999H48.2305C49.0806 87.9996 49.8406 87.4696 50.134 86.6716C51.9782 81.6552 55.4649 78.1113 60.4963 76.1382C64.3707 74.619 67.7629 74.635 67.7905 74.6348C68.3404 74.6448 68.8574 74.433 69.2444 74.0518C69.6313 73.6708 69.8493 73.1503 69.8493 72.607C69.8491 67.2203 68.4043 62.0393 65.5569 57.206ZM46.0279 52.3473H56.4454C57.1443 52.9664 58.4895 54.2534 59.9487 56.1438H46.0277V52.3473H46.0279ZM31.5574 52.3473H41.972V56.1438H28.0548C29.5099 54.2627 30.8586 52.9693 31.5574 52.3473ZM59.1712 72.3021C53.4725 74.4932 49.242 78.5018 46.8608 83.9439H43.9999H41.1393C38.7581 78.5017 34.5277 74.4929 28.8289 72.3021C26.2547 71.3125 23.8878 70.8902 22.277 70.7107C22.5472 67.0737 23.5994 63.5501 25.4115 60.1999H41.9722V63.2419C41.9722 64.3619 42.8802 65.2699 44.0001 65.2699C45.1202 65.2699 46.0281 64.3617 46.0281 63.2419V60.1999H62.5887C64.4008 63.5503 65.4529 67.0737 65.7231 70.7107C64.1122 70.8902 61.7452 71.3125 59.1712 72.3021Z" fill="#E0E0E0"/>
<path d="M67.101 5.92264C65.6288 3.22094 62.6135 0 56.6082 0C52.8226 0 49.3497 1.50133 46.5646 4.34173C45.5949 5.33053 44.7273 6.46869 43.9999 7.6878C43.2727 6.46869 42.4051 5.3307 41.4352 4.34173C38.6501 1.50133 35.1772 0 31.3917 0C25.3864 0 22.371 3.22094 20.8989 5.92281C19.368 8.73297 19.221 11.5459 19.2155 11.6643C19.2009 11.98 19.2602 12.2946 19.3888 12.5833L28.013 31.9464V34.4113C28.013 35.5312 28.921 36.4392 30.0409 36.4392C31.161 36.4392 32.0689 35.531 32.0689 34.4113V33.5433H34.9933V34.4111C34.9933 35.531 35.9013 36.439 37.0213 36.439C38.1414 36.439 39.0492 35.5309 39.0492 34.4111V33.5433H41.9716V34.4111C41.9716 35.531 42.8796 36.439 43.9996 36.439C45.1197 36.439 46.0275 35.5309 46.0275 34.4111V33.5433H48.952V34.4111C48.952 35.531 49.86 36.439 50.9799 36.439C52.1 36.439 53.0079 35.5309 53.0079 34.4111V33.5433H55.9303V34.4111C55.9303 35.531 56.8383 36.439 57.9582 36.439C59.0782 36.439 59.9862 35.5309 59.9862 34.4111V31.9464L68.6104 12.5833C68.7389 12.2946 68.7984 11.9797 68.7836 11.6643C68.7788 11.5457 68.6318 8.73314 67.101 5.92264ZM56.642 29.4877H46.0279V21.6695C46.0279 20.5495 45.1199 19.6415 43.9999 19.6415C42.8798 19.6415 41.972 20.5497 41.972 21.6695V29.4876H31.3578L23.3074 11.4125C23.5105 9.7503 24.6954 4.05608 31.3917 4.05608C37.5034 4.05608 41.1031 9.63067 42.0313 13.3779C42.2554 14.2826 43.0677 14.9182 43.9999 14.9182C44.9322 14.9182 45.7443 14.2826 45.9686 13.3779C46.8969 9.63067 50.4966 4.05608 56.6082 4.05608C59.8294 4.05608 62.077 5.26625 63.4795 7.75552C64.2982 9.20906 64.5887 10.7119 64.6865 11.4261L56.642 29.4877Z" fill="#E0E0E0"/>
<path d="M43.6562 68.1741C42.8161 68.3122 42.1382 68.9899 42.0002 69.8301C41.7721 71.2174 42.9562 72.4017 44.3436 72.1734C45.1837 72.0352 45.8616 71.3575 45.9996 70.5174C46.2278 69.13 45.0436 67.946 43.6562 68.1741Z" fill="#E0E0E0"/>
</svg>
