<?xml version="1.0" standalone="no"?>
<!DOCTYPE svg PUBLIC "-//W3C//DTD SVG 20010904//EN"
 "http://www.w3.org/TR/2001/REC-SVG-20010904/DTD/svg10.dtd">
<svg version="1.0" xmlns="http://www.w3.org/2000/svg"
 width="1000.000000pt" height="667.000000pt" viewBox="0 0 1000.000000 667.000000"
 preserveAspectRatio="xMidYMid meet">

<g transform="translate(0.000000,667.000000) scale(0.100000,-0.100000)"
fill="#000000" stroke="none">
<path d="M0 3335 l0 -3335 1328 0 1329 0 30 32 c42 46 261 198 285 198 7 0 19
6 27 14 9 8 111 78 226 155 404 272 553 376 603 421 64 57 108 90 119 90 6 0
34 17 64 38 30 21 99 62 154 91 55 29 123 68 150 85 97 63 109 69 155 81 26 7
73 30 105 51 32 22 70 47 84 56 14 9 53 24 85 32 33 9 76 27 96 40 19 13 45
26 58 30 12 3 31 9 42 12 14 4 20 1 20 -10 0 -8 -13 -17 -30 -21 -40 -9 -139
-74 -176 -117 -69 -79 -100 -276 -74 -463 55 -381 188 -571 460 -655 219 -68
373 -86 715 -84 198 1 430 26 635 69 36 7 85 16 110 20 322 46 600 171 853
384 167 140 340 341 394 458 29 63 73 232 73 282 0 65 -19 114 -58 149 l-37
34 46 -31 c29 -19 49 -41 53 -57 9 -36 36 -74 52 -74 7 0 32 -10 55 -22 l41
-21 -5 -56 c-4 -41 -11 -60 -26 -70 -20 -13 -31 -38 -12 -27 5 4 7 -3 4 -14
-8 -32 -22 -33 -29 -4 -4 16 -2 35 5 47 7 10 8 16 2 13 -5 -3 -11 -1 -14 6 -2
7 -3 5 -2 -4 2 -10 0 -18 -3 -18 -13 1 -42 27 -42 39 0 22 -16 11 -27 -19 -12
-32 -6 -81 7 -60 12 19 29 3 23 -20 -4 -14 0 -20 11 -20 9 0 16 5 16 12 0 9 3
9 12 0 8 -8 8 -15 -3 -28 -8 -9 -14 -31 -15 -47 0 -17 -6 -33 -14 -35 -8 -3
-10 0 -5 8 6 9 4 11 -5 5 -11 -7 -11 -10 2 -18 13 -9 13 -13 1 -38 -8 -16 -19
-31 -24 -35 -6 -3 -5 -12 3 -22 11 -13 11 -15 -4 -9 -13 5 -16 1 -12 -19 3
-14 1 -23 -4 -20 -4 2 -9 -4 -9 -15 -1 -10 2 -19 8 -19 5 0 9 7 9 17 0 9 3 13
6 10 4 -3 14 4 24 16 23 29 110 213 110 231 0 8 4 17 10 21 5 3 7 12 3 20 -3
8 0 15 6 15 6 0 10 3 9 8 -1 4 1 25 5 47 4 22 3 62 -3 90 -6 28 -12 58 -13 67
-1 9 -4 15 -8 13 -3 -3 -15 2 -25 10 -18 13 -18 14 -1 20 19 8 49 -11 45 -29
-1 -6 16 -47 39 -92 39 -75 41 -85 35 -135 -4 -30 -5 -73 -2 -95 4 -35 7 -40
18 -28 7 8 10 14 7 14 -4 0 1 7 9 16 9 8 14 19 11 24 -3 5 -2 11 3 14 5 3 9
-18 9 -47 1 -28 -3 -55 -9 -58 -6 -4 -7 -12 -3 -19 5 -8 12 -6 26 8 20 23 64
19 55 -4 -3 -8 1 -14 9 -14 8 0 15 -4 15 -9 0 -6 9 -8 20 -6 13 2 20 -2 20
-11 0 -8 -10 -14 -22 -15 l-23 0 23 -10 c29 -11 42 -4 42 22 0 18 2 19 30 4
17 -9 30 -20 30 -25 0 -14 -17 -12 -23 3 -4 7 -6 6 -6 -5 -1 -9 -4 -25 -7 -35
-5 -16 -5 -17 6 -1 10 17 40 15 40 -3 0 -5 9 -18 20 -29 24 -24 29 -60 6 -41
-10 9 -24 9 -48 2 -30 -8 -31 -9 -8 -11 14 -1 32 -2 40 -1 12 2 13 0 1 -7 -7
-6 -10 -15 -7 -21 5 -8 12 -7 22 4 18 18 30 19 40 3 5 -8 2 -9 -9 -5 -10 3
-17 2 -17 -3 0 -16 66 -23 90 -10 20 11 22 10 17 -5 -4 -9 -7 -18 -7 -19 0 -1
-27 -1 -60 1 -33 2 -60 -1 -60 -6 0 -14 24 -20 69 -16 30 2 41 0 41 -11 0 -9
-11 -14 -31 -14 -18 0 -28 -4 -24 -10 4 -6 11 -8 16 -4 6 3 17 -2 25 -12 12
-17 13 -17 8 -2 -8 22 12 24 20 2 9 -23 8 -24 -15 -24 -11 0 -17 -5 -14 -10 3
-6 15 -10 26 -10 13 0 19 7 19 23 0 20 1 20 15 -6 8 -15 12 -34 9 -41 -3 -7 2
-16 11 -20 9 -3 14 -2 10 3 -8 14 5 39 23 44 15 4 15 5 -1 6 -10 0 -22 13 -27
27 -6 14 -14 22 -20 19 -5 -3 -10 -1 -10 5 0 6 -4 9 -9 6 -5 -3 -12 1 -15 10
-9 25 -8 26 18 9 14 -9 30 -15 38 -14 7 1 24 1 38 -1 21 -1 22 -3 7 -9 -22 -8
-19 -25 6 -28 17 -3 41 13 45 30 4 14 17 5 14 -9 -2 -9 3 -23 10 -32 11 -13
11 -15 -4 -10 -14 6 -28 -8 -28 -28 0 -10 29 -3 33 9 2 6 8 8 13 4 5 -4 2 -12
-6 -18 -13 -8 -10 -13 13 -32 15 -13 27 -29 27 -37 0 -9 -3 -11 -8 -5 -4 6
-17 10 -29 10 -13 0 -22 -4 -20 -10 1 -5 10 -9 19 -8 10 2 20 -7 24 -19 l6
-21 20 24 c19 24 19 24 13 2 -4 -14 -2 -23 5 -23 6 0 8 -4 5 -10 -3 -5 -1 -10
4 -10 6 0 11 6 11 13 1 6 7 1 14 -12 15 -27 10 -64 -5 -39 -5 7 -19 13 -33 13
-18 1 -26 -5 -29 -22 -2 -13 0 -23 4 -23 5 0 9 4 9 9 0 6 16 3 35 -5 45 -18
55 -18 56 4 0 13 2 12 9 -5 11 -27 22 -31 18 -7 -2 10 3 19 11 22 9 3 12 0 8
-10 -3 -9 0 -21 6 -28 9 -9 2 -11 -32 -9 -25 2 -46 -1 -48 -7 -2 -6 10 -10 29
-9 40 3 68 -4 68 -17 0 -5 -5 -6 -10 -3 -7 4 -9 -3 -6 -19 7 -36 14 -46 32
-39 11 4 12 9 5 16 -6 6 -11 17 -11 24 0 17 42 34 54 22 15 -14 29 -10 22 6
-3 9 0 15 9 15 8 0 15 -4 15 -10 0 -5 7 -10 15 -10 9 0 12 6 9 15 -4 8 -1 15
5 15 6 0 11 -7 11 -15 0 -18 17 -20 22 -3 3 9 6 9 12 -1 5 -8 1 -14 -13 -18
-12 -3 -21 -10 -21 -15 0 -5 5 -6 10 -3 14 9 50 -4 50 -18 0 -7 9 -23 19 -37
l19 -24 13 27 c9 20 9 33 1 52 -7 15 -8 27 -2 30 6 4 10 1 10 -4 0 -6 8 -11
18 -11 11 0 13 3 5 8 -6 4 -13 18 -16 32 -2 14 -2 20 0 14 2 -6 14 -16 26 -23
13 -7 29 -26 36 -43 l14 -31 19 24 19 24 -7 -28 c-4 -17 -2 -27 4 -25 21 6 16
-17 -5 -27 -15 -6 -23 -18 -23 -33 0 -13 -4 -20 -10 -17 -5 3 -10 2 -10 -3 0
-20 15 -21 49 -3 20 11 44 22 53 25 9 3 22 23 28 45 8 32 16 41 39 46 23 5 28
10 23 27 -3 14 -1 19 6 14 7 -4 12 -13 12 -21 0 -7 7 -15 15 -19 8 -3 20 -17
27 -31 13 -30 33 -34 25 -5 -3 11 -1 18 4 14 5 -3 9 3 10 13 0 10 3 13 6 6 7
-18 23 -16 23 2 0 9 8 19 18 22 17 7 41 32 42 45 0 4 -10 4 -22 1 -61 -14 -75
-14 -96 4 -15 12 -24 30 -24 50 -1 23 -7 34 -20 39 -10 3 -15 10 -12 16 5 7 2
8 -5 3 -8 -4 -10 -17 -7 -31 5 -20 3 -24 -15 -24 -15 0 -19 -4 -15 -15 3 -8 9
-22 12 -30 6 -16 -11 -21 -20 -6 -7 11 -56 11 -56 0 0 -9 15 -13 39 -10 7 2
10 -2 6 -8 -3 -6 -1 -11 4 -11 6 0 11 -4 11 -10 0 -14 -20 -12 -39 3 -9 7 -33
19 -55 26 -32 11 -40 11 -47 0 -6 -10 -9 -8 -9 9 0 23 5 25 57 22 27 -1 32 2
27 15 -5 13 -14 15 -41 10 -33 -6 -34 -5 -22 17 14 28 24 38 17 18 -9 -25 69
-25 82 0 5 10 19 22 30 25 30 9 13 28 -21 23 -16 -3 -29 -1 -29 3 0 4 -12 10
-26 13 -29 8 -56 31 -73 64 -7 12 -16 20 -22 17 -5 -4 -9 -2 -9 2 0 5 -6 18
-14 28 -13 18 -14 17 -9 -10 4 -28 3 -28 -9 -10 -7 11 -13 27 -15 35 -1 8 -9
20 -18 27 -10 6 -14 16 -11 22 4 5 -4 11 -16 13 -13 2 -22 9 -20 17 2 8 -3 11
-12 8 -9 -4 -22 0 -30 8 -8 8 -23 15 -33 15 -11 0 -29 9 -41 20 -12 12 -22 18
-22 14 0 -3 -7 -1 -15 6 -12 10 -18 10 -30 0 -13 -10 -15 -9 -15 11 0 27 -27
42 -95 54 -22 4 -47 8 -55 9 -8 2 -26 8 -40 14 -14 6 -38 15 -55 20 -18 6 -29
15 -27 24 1 9 -5 21 -13 28 -8 7 -15 19 -15 27 0 11 -6 8 -21 -8 -11 -13 -18
-19 -15 -12 4 6 2 14 -3 17 -5 4 -12 -3 -16 -14 -9 -27 -19 -25 -33 6 -7 14
-28 32 -47 40 -24 10 -33 19 -28 27 4 7 -5 4 -20 -6 -26 -17 -27 -17 -27 2 0
11 6 21 13 24 6 2 3 2 -8 0 -52 -10 -85 -8 -89 7 -2 8 -4 5 -5 -8 -1 -19 -3
-21 -15 -10 -10 9 -10 15 -3 20 19 12 0 21 -44 21 -34 0 -40 3 -36 18 6 20
-22 31 -47 17 -22 -12 -22 24 0 46 19 20 39 20 56 2 11 -11 15 -11 24 2 10 14
13 13 23 -6 7 -13 17 -19 26 -16 9 4 21 1 28 -4 16 -13 50 -9 55 6 2 7 -1 12
-7 12 -6 0 -11 7 -11 15 0 8 -9 15 -20 15 -11 0 -20 5 -20 10 0 6 -7 10 -15
10 -8 0 -15 5 -15 11 0 6 7 8 16 5 9 -3 20 -6 25 -6 6 0 8 -4 5 -9 -3 -5 6
-12 20 -15 14 -4 46 -16 70 -27 24 -12 48 -18 53 -15 6 4 18 2 28 -3 10 -5 49
-24 88 -43 38 -18 79 -41 89 -50 11 -10 28 -18 38 -18 10 0 21 -7 24 -15 4 -8
15 -15 26 -15 31 0 101 -22 119 -37 8 -7 22 -13 31 -13 8 0 26 -9 40 -19 13
-11 38 -23 53 -27 46 -11 94 -43 171 -111 40 -35 76 -63 82 -63 5 0 26 -13 47
-30 21 -16 42 -30 47 -30 6 0 33 -18 60 -40 29 -23 44 -40 34 -40 -9 0 -16 5
-16 10 0 6 -7 10 -15 10 -8 0 -15 4 -15 10 0 5 -7 7 -15 4 -8 -4 -15 -1 -15 5
0 6 -5 11 -11 11 -5 0 -7 -6 -4 -12 4 -7 -1 -4 -9 6 -9 11 -16 22 -16 26 0 7
-87 7 -94 -1 -4 -3 -4 -14 0 -23 5 -14 9 -14 22 -4 16 13 16 13 -3 -35 -4 -8
5 -13 25 -15 35 -3 110 -33 110 -44 0 -5 9 -8 20 -8 11 0 20 -4 20 -10 0 -5 6
-10 13 -10 8 0 24 -11 36 -24 13 -14 29 -22 37 -19 27 10 35 -8 14 -37 -21
-29 -12 -51 13 -33 23 17 62 13 97 -8 76 -48 230 -117 230 -103 0 3 9 0 20 -6
20 -11 20 -8 20 3205 l0 3215 -5000 0 -5000 0 0 -3335z m5437 2389 c-3 -3 -12
-4 -19 -1 -8 3 -5 6 6 6 11 1 17 -2 13 -5z m87 -12 c2 -4 -4 -8 -14 -8 -10 0
-16 4 -14 8 3 4 9 8 14 8 5 0 11 -4 14 -8z m-97 -8 c-3 -3 -12 -4 -19 -1 -8 3
-5 6 6 6 11 1 17 -2 13 -5z m-50 -30 c-3 -3 -12 -4 -19 -1 -8 3 -5 6 6 6 11 1
17 -2 13 -5z m-177 -29 c7 -9 8 -15 2 -15 -5 0 -12 7 -16 15 -3 8 -4 15 -2 15
2 0 9 -7 16 -15z m175 5 c-16 -7 -16 -9 -4 -9 9 -1 19 -8 23 -16 3 -8 11 -15
18 -15 7 -1 27 -12 43 -26 20 -18 23 -22 8 -15 -12 6 -24 15 -27 20 -4 5 -14
8 -24 6 -9 -2 -21 -4 -25 -4 -5 -1 -5 -6 -2 -12 4 -6 12 -8 19 -6 7 3 13 -5
14 -19 1 -16 -3 -24 -14 -24 -10 0 -14 6 -10 15 8 21 -18 19 -35 -2 -12 -16
-12 -16 1 -6 12 9 17 7 27 -13 10 -21 10 -24 -2 -14 -9 8 -15 8 -20 0 -5 -8
-10 -8 -20 0 -10 9 -16 7 -24 -8 -8 -15 -7 -21 4 -25 9 -4 12 -1 8 9 -8 22 10
17 25 -7 9 -14 10 -19 2 -14 -9 5 -10 1 -5 -14 8 -26 4 -26 -25 -1 -17 15 -26
17 -36 9 -7 -6 -10 -17 -7 -25 4 -11 0 -12 -27 -3 -24 9 -34 9 -43 0 -9 -9 -8
-11 4 -6 10 4 16 0 16 -10 0 -8 -5 -15 -10 -15 -5 0 -4 -6 2 -13 6 -8 7 -17 3
-21 -4 -4 0 -6 8 -4 8 2 15 -3 16 -9 1 -7 2 -14 4 -15 1 -2 3 -18 4 -36 2 -27
-1 -31 -15 -27 -9 3 -20 1 -24 -5 -3 -5 1 -10 9 -10 23 0 28 -17 6 -23 -11 -3
-18 -1 -15 3 3 5 1 11 -5 15 -5 3 -10 0 -10 -7 0 -9 -3 -9 -10 2 -6 9 -10 10
-10 3 0 -6 5 -15 10 -18 6 -3 10 -14 10 -23 0 -14 -4 -12 -19 7 -15 20 -18 21
-18 5 0 -11 7 -24 16 -31 14 -11 11 -12 -16 -13 -24 0 -33 5 -33 16 0 10 -6
14 -14 11 -15 -6 -30 16 -19 27 12 12 23 6 37 -21 9 -17 16 -22 16 -13 5 50 8
63 21 70 11 7 10 10 -3 15 -10 4 -15 13 -11 23 4 14 3 15 -5 2 -6 -8 -8 -18
-5 -23 3 -4 2 -20 -2 -34 -6 -24 -7 -24 -24 -9 -11 10 -25 14 -36 10 -15 -6
-17 -3 -12 15 3 14 1 21 -6 18 -18 -6 -16 -29 4 -52 11 -13 15 -25 10 -34 -6
-9 -10 -6 -15 12 -5 21 -38 49 -35 29 4 -23 -4 -44 -22 -61 -15 -14 -19 -26
-14 -43 3 -12 3 -18 -2 -13 -4 6 -15 11 -23 13 -12 3 -13 1 -2 -9 14 -15 16
-33 2 -24 -5 3 -10 -1 -10 -9 0 -9 -7 -16 -16 -16 -9 0 -12 -5 -8 -12 5 -7 2
-9 -9 -5 -9 3 -18 0 -21 -9 -3 -8 -2 -13 2 -10 4 2 14 1 22 -5 10 -6 11 -9 3
-9 -7 0 -13 -9 -13 -20 0 -28 -17 -25 -34 8 -10 18 -15 21 -16 10 0 -9 14 -28
30 -41 30 -25 42 -46 18 -30 -7 4 -22 8 -32 8 -13 0 -20 8 -21 23 -1 13 -7 27
-14 32 -7 4 -12 10 -12 14 3 19 0 26 -10 26 -8 0 -8 -5 1 -15 9 -11 9 -15 1
-15 -6 0 -14 7 -17 15 -8 20 -23 19 -46 -2 -11 -10 -19 -13 -18 -8 7 31 0 38
-20 20 -11 -10 -17 -21 -15 -26 3 -4 1 -10 -5 -14 -5 -3 -10 3 -10 14 0 22
-24 29 -35 11 -3 -5 1 -10 9 -10 9 0 16 -8 16 -17 0 -15 -2 -16 -10 -3 -15 23
-26 1 -11 -23 9 -15 10 -18 1 -10 -7 6 -19 9 -28 6 -11 -5 -13 -3 -7 8 7 11 5
11 -10 -1 -11 -9 -16 -10 -11 -2 5 8 1 12 -11 13 -17 1 -17 2 0 6 9 2 17 8 17
13 0 4 -8 6 -17 4 -10 -3 -26 1 -36 8 -18 13 -17 14 2 14 11 0 17 -4 15 -8 -3
-4 -1 -8 4 -8 5 0 13 17 18 38 8 32 10 34 16 14 3 -12 2 -20 -3 -16 -5 3 -9 1
-9 -5 0 -5 4 -12 9 -15 11 -7 23 22 14 36 -3 7 -1 8 5 4 7 -4 12 -13 12 -21 0
-21 37 -6 43 17 3 11 10 17 16 13 6 -3 19 -1 28 5 15 10 16 11 1 6 -9 -3 -19
2 -22 11 -5 11 -1 14 12 11 15 -4 26 8 50 57 18 34 32 67 32 73 0 7 9 17 20
24 11 7 20 19 20 26 0 7 5 10 10 7 6 -3 10 -2 10 4 0 5 -7 14 -15 19 -9 5 -13
15 -10 24 7 18 35 33 35 19 0 -5 -5 -11 -12 -13 -6 -2 -8 -10 -4 -16 12 -20
26 -13 26 13 0 14 4 25 9 25 5 0 9 -11 9 -25 0 -14 -4 -28 -9 -31 -5 -3 -9
-10 -9 -15 0 -6 11 2 25 17 14 15 25 30 25 33 -1 13 -27 40 -33 34 -4 -3 -7 1
-7 11 0 10 5 14 11 11 6 -4 17 1 25 11 9 11 12 12 8 4 -4 -8 4 -5 18 8 13 12
30 22 37 22 7 0 9 5 5 13 -4 6 -4 9 1 5 4 -4 14 -3 21 3 9 7 19 7 33 -1 12 -6
21 -9 22 -8 6 23 6 38 -1 38 -5 0 -10 -5 -12 -12 -3 -9 -6 -9 -12 0 -13 21 23
26 46 6 20 -19 21 -19 14 4 -6 16 -3 22 9 22 9 0 13 -4 10 -10 -3 -5 -1 -10 4
-10 6 0 11 5 11 10 0 15 27 12 33 -4 6 -14 -27 -48 -37 -39 -9 9 -7 -10 2 -22
10 -13 35 -18 27 -5 -3 5 1 13 9 16 9 3 16 13 16 21 0 8 5 11 11 8 6 -4 8 -14
4 -22 -4 -13 -3 -13 8 -4 17 14 21 74 4 68 -7 -3 -11 -10 -9 -16 1 -6 -5 -11
-14 -11 -8 0 -13 4 -9 9 3 5 -5 17 -17 25 -17 12 -19 16 -6 16 9 0 18 -5 20
-11 3 -9 9 -9 26 0 14 7 19 17 16 29 -4 11 1 9 16 -8 12 -14 19 -19 15 -12 -4
7 1 12 12 13 16 0 16 1 -2 9 -20 8 -19 9 1 9 12 1 27 -6 34 -14 7 -8 22 -14
34 -14 20 1 20 2 1 6 -34 8 -46 23 -35 43 5 9 6 21 2 26 -4 5 1 2 11 -5 20
-15 23 -26 5 -15 -9 5 -9 2 1 -9 15 -18 26 -23 16 -7 -3 6 2 10 12 10 17 1 17
1 1 11 -25 14 -22 29 5 28 21 0 21 -1 2 -9z m55 -10 c0 -5 -4 -10 -9 -10 -6 0
-13 5 -16 10 -3 6 1 10 9 10 9 0 16 -4 16 -10z m-123 -14 c-2 -5 -9 -12 -17
-14 -7 -3 -10 0 -6 6 3 6 0 12 -6 15 -7 3 -3 4 10 4 12 -1 21 -6 19 -11z
m-147 -7 c0 -6 7 -8 16 -5 8 3 13 2 10 -3 -3 -5 1 -12 10 -15 9 -4 14 -9 11
-13 -4 -3 -13 -1 -21 6 -8 6 -18 11 -22 10 -20 -3 -31 2 -31 16 0 8 6 15 14
15 7 0 13 -5 13 -11z m375 -12 c19 -4 19 -5 -1 -6 -12 0 -28 7 -35 17 -12 15
-12 16 1 6 8 -7 24 -14 35 -17z m-448 -3 c-3 -4 -2 -15 4 -26 9 -16 7 -20 -9
-25 -11 -2 -25 -14 -31 -26 -6 -12 -10 -15 -7 -6 2 9 -1 22 -7 29 -8 8 -8 11
-1 7 6 -4 20 1 30 9 10 9 13 12 6 9 -11 -6 -12 -3 -3 14 7 11 15 21 18 21 3 0
3 -3 0 -6z m394 -11 c13 -16 12 -17 -3 -4 -10 7 -18 15 -18 17 0 8 8 3 21 -13z
m-36 -53 c3 -5 1 -10 -4 -10 -6 0 -11 5 -11 10 0 6 2 10 4 10 3 0 8 -4 11 -10z
m-60 -50 c3 -5 2 -10 -4 -10 -5 0 -13 5 -16 10 -3 6 -2 10 4 10 5 0 13 -4 16
-10z m79 -6 c5 -14 4 -15 -9 -4 -17 14 -19 20 -6 20 5 0 12 -7 15 -16z m57 -1
c13 -16 12 -17 -3 -4 -10 7 -18 15 -18 17 0 8 8 3 21 -13z m-73 -15 c16 -16
15 -29 -3 -22 -11 5 -12 0 -5 -25 5 -19 5 -31 -1 -31 -5 0 -9 10 -9 21 0 12
-7 27 -17 34 -17 13 -10 35 11 35 6 0 17 -5 24 -12z m-135 -22 c4 -10 1 -13
-8 -9 -8 3 -12 9 -9 14 7 12 11 11 17 -5z m-426 -28 c-3 -7 -5 -2 -5 12 0 14
2 19 5 13 2 -7 2 -19 0 -25z m-37 18 c0 -2 -8 -10 -17 -17 -16 -13 -17 -12 -4
4 13 16 21 21 21 13z m428 -28 c10 -10 15 -10 22 2 5 8 10 10 10 4 0 -5 -6
-19 -14 -29 -13 -17 -11 -22 10 -42 14 -13 21 -23 15 -23 -5 0 -27 16 -48 36
-21 20 -30 34 -20 31 9 -4 17 -4 17 0 0 3 -8 12 -17 19 -15 11 -16 13 -2 14 8
0 21 -6 27 -12z m60 -8 c-11 -18 -28 -27 -28 -16 0 16 14 36 26 36 12 0 12 -4
2 -20z m206 11 c3 -4 -6 -6 -21 -3 -19 4 -24 2 -18 -8 5 -9 4 -11 -4 -6 -6 4
-9 12 -6 17 8 11 42 12 49 0z m-150 -34 c5 -22 5 -22 -10 -2 -8 11 -23 19 -32
17 -14 -2 -14 -1 -3 7 20 13 38 4 45 -22z m-4 -39 c0 -5 -8 0 -18 10 -11 9
-17 21 -14 25 4 8 31 -22 32 -35z m64 -4 c3 -8 2 -12 -4 -9 -6 3 -10 10 -10
16 0 14 7 11 14 -7z m-663 -17 c-10 -9 -11 -8 -5 6 3 10 9 15 12 12 3 -3 0
-11 -7 -18z m571 -24 c7 -9 3 -11 -16 -7 -14 2 -26 0 -26 -6 0 -5 5 -10 10
-10 6 0 10 -5 10 -12 0 -6 -9 -3 -20 7 -19 17 -20 17 -29 -6 -6 -15 -10 -18
-10 -8 -1 9 14 32 32 51 24 27 33 31 36 19 2 -9 8 -21 13 -28z m-522 16 c0
-14 -17 -10 -23 5 -4 10 -1 13 9 9 7 -3 14 -9 14 -14z m594 -22 c3 -16 1 -25
-5 -22 -5 4 -7 10 -4 15 3 5 1 11 -4 14 -5 3 -12 -1 -15 -10 -3 -8 -10 -12
-16 -9 -6 4 -8 10 -5 15 3 4 -1 11 -7 14 -7 4 -3 4 9 2 13 -2 26 0 29 6 8 13
12 8 18 -25z m-69 -27 c3 -5 1 -10 -4 -10 -6 0 -11 5 -11 10 0 6 2 10 4 10 3
0 8 -4 11 -10z m-40 -20 c3 -5 1 -10 -4 -10 -6 0 -11 5 -11 10 0 6 2 10 4 10
3 0 8 -4 11 -10z m-268 -42 c-3 -8 -6 -5 -6 6 -1 11 2 17 5 13 3 -3 4 -12 1
-19z m344 0 l12 -23 -24 20 c-13 11 -26 21 -28 22 -2 2 3 3 12 3 9 0 22 -10
28 -22z m-77 1 c-2 -4 2 -10 8 -12 8 -4 9 -6 2 -6 -6 -1 -17 5 -23 12 -8 10
-7 14 4 14 8 0 12 -4 9 -8z m-197 -15 c-3 -3 -12 -4 -19 -1 -8 3 -5 6 6 6 11
1 17 -2 13 -5z m-47 -8 c0 -2 -7 -7 -16 -10 -8 -3 -12 -2 -9 4 6 10 25 14 25
6z m-405 -64 c-8 -8 -25 10 -19 20 4 6 9 5 15 -3 4 -7 6 -15 4 -17z m15 -33
c0 -5 -4 -9 -10 -9 -5 0 -10 7 -10 16 0 8 5 12 10 9 6 -3 10 -10 10 -16z m165
-79 c10 -11 14 -20 10 -20 -5 0 2 -11 15 -25 12 -13 27 -22 33 -18 6 3 7 1 4
-5 -11 -17 -49 -5 -53 16 -7 34 -20 53 -43 61 -22 8 -23 10 -5 10 11 1 29 -8
39 -19z m105 0 c0 -5 -2 -10 -4 -10 -3 0 -8 5 -11 10 -3 6 -1 10 4 10 6 0 11
-4 11 -10z m-241 -21 c-16 -10 -23 -4 -14 10 3 6 11 8 17 5 6 -4 5 -9 -3 -15z
m81 -5 c0 -2 -9 0 -20 6 -11 6 -20 13 -20 16 0 2 9 0 20 -6 11 -6 20 -13 20
-16z m25 -18 c-8 -12 -12 -25 -9 -29 3 -3 -4 -3 -16 0 -22 6 -22 6 4 28 14 12
22 26 18 30 -4 5 -1 5 5 1 10 -5 9 -12 -2 -30z m-207 10 c15 4 24 3 20 -1 -4
-4 0 -14 10 -21 15 -12 15 -13 1 -14 -9 0 -20 8 -23 17 -6 15 -8 15 -17 3 -8
-13 -10 -13 -19 0 -5 8 -9 20 -9 25 0 6 3 4 6 -2 3 -9 14 -11 31 -7z m99 -21
c0 -8 -4 -12 -9 -9 -4 3 -8 9 -8 15 0 5 4 9 8 9 5 0 9 -7 9 -15z m143 -44 c0
-21 -16 -2 -24 29 -7 24 -6 24 8 6 9 -11 16 -27 16 -35z m37 3 c-3 -3 -12 -4
-19 -1 -8 3 -5 6 6 6 11 1 17 -2 13 -5z m-66 -31 c13 -16 12 -17 -3 -4 -17 13
-22 21 -14 21 2 0 10 -8 17 -17z m717 -134 c11 0 12 -2 4 -6 -6 -2 -10 -8 -7
-13 3 -4 -4 -6 -15 -3 -11 3 -18 9 -15 13 3 5 2 10 -2 13 -5 2 -2 2 5 0 8 -1
21 -3 30 -4z m-63 -9 c4 -6 -5 -10 -20 -10 -15 0 -24 4 -20 10 3 6 12 10 20
10 8 0 17 -4 20 -10z m-661 -112 c8 -18 12 -37 9 -43 -5 -16 -35 -15 -51 2 -8
8 -9 13 -3 13 6 0 11 7 11 16 0 12 5 11 19 -7 l20 -24 -6 23 c-3 13 -12 26
-19 29 -16 6 -19 23 -4 23 6 0 17 -14 24 -32z m686 12 c0 -5 -9 -10 -20 -10
-11 0 -20 5 -20 10 0 6 9 10 20 10 11 0 20 -4 20 -10z m150 -52 c0 -4 -5 -10
-10 -13 -8 -5 -8 -11 0 -20 8 -10 2 -14 -27 -20 -21 -3 -49 -9 -62 -12 l-25
-6 22 31 c12 16 22 34 22 40 0 5 18 9 40 8 22 0 40 -4 40 -8z m-866 -24 c9 -3
13 -10 10 -15 -3 -5 2 -9 10 -9 9 0 16 -4 16 -10 0 -6 -10 -6 -27 1 -22 8 -25
8 -16 -2 9 -9 8 -15 -3 -26 -8 -8 -11 -20 -7 -26 3 -7 -2 -5 -13 4 -10 8 -25
14 -31 13 -7 -1 -17 -2 -23 -3 -5 0 -7 -7 -4 -15 3 -9 -3 -17 -15 -21 -12 -3
-21 -11 -21 -16 0 -5 -6 -9 -12 -9 -7 1 -3 9 9 19 12 10 20 21 17 24 -3 3 10
16 30 29 20 13 34 28 32 33 -1 6 4 15 13 22 19 15 16 14 35 7z m616 -41 c0 -7
-4 -13 -10 -13 -5 0 -10 12 -10 28 0 21 2 24 10 12 5 -8 10 -21 10 -27z m-200
-28 c-7 -9 -15 -13 -18 -10 -3 2 1 11 8 20 7 9 15 13 18 10 3 -2 -1 -11 -8
-20z m277 -1 c-3 -3 -12 -4 -19 -1 -8 3 -5 6 6 6 11 1 17 -2 13 -5z m-227 -44
c-20 -13 -33 -13 -25 0 3 6 14 10 23 10 15 0 15 -2 2 -10z m-526 -30 c-6 -6
-10 -3 -10 10 0 13 4 16 10 10 7 -7 7 -13 0 -20z m-33 -23 c-6 -15 -16 -27
-22 -27 -8 0 -7 -5 2 -17 11 -15 11 -16 -1 -5 -8 6 -21 12 -29 12 -13 -1 -13
-2 2 -11 26 -15 22 -38 -5 -32 -23 5 -23 5 -3 -10 19 -16 19 -16 -13 -12 -19
2 -45 -1 -58 -7 -36 -17 -41 -2 -10 29 28 28 56 39 56 21 0 -6 -7 -8 -15 -4
-13 4 -14 2 -5 -14 6 -11 14 -20 17 -20 3 0 3 3 0 7 -4 3 -2 12 4 20 9 10 8
18 -5 31 -15 17 -14 20 7 39 13 12 33 19 50 17 23 -2 28 0 22 14 -4 12 -3 14
5 6 7 -7 8 -19 1 -37z m-138 17 c15 -3 27 -10 27 -15 0 -18 -47 -59 -75 -65
-29 -5 -30 -5 -29 34 1 48 10 64 32 58 10 -3 29 -8 45 -12z m912 -2 c-3 -3
-11 0 -18 7 -9 10 -8 11 6 5 10 -3 15 -9 12 -12z m-1005 -4 c0 -4 -12 -8 -26
-8 -14 0 -23 4 -19 9 6 11 45 10 45 -1z m748 -39 c-1 -20 -4 -26 -9 -17 -12
18 -11 48 0 48 5 0 9 -14 9 -31z m76 -61 c-4 -7 -2 -8 4 -4 7 4 12 16 12 27 0
10 7 19 15 19 8 0 15 -4 15 -10 0 -5 -4 -10 -10 -10 -5 0 -10 -5 -10 -11 0 -6
7 -9 15 -5 8 3 15 4 15 2 0 -3 3 -13 6 -23 6 -15 4 -16 -7 -5 -7 6 -19 12 -26
12 -15 0 -18 -26 -3 -35 6 -3 7 1 4 9 -3 9 -2 16 3 16 18 0 22 -12 12 -31 -9
-17 -7 -18 15 -7 14 6 23 14 21 18 -2 3 -6 20 -9 36 -5 27 -4 28 9 10 8 -11
15 -26 15 -33 0 -7 10 -18 23 -24 22 -12 22 -12 3 10 -22 24 -15 41 9 21 8 -7
15 -8 15 -2 0 12 -29 24 -41 16 -5 -3 -9 1 -9 10 0 8 7 13 18 11 9 -2 23 -4
30 -4 6 -1 12 -8 12 -16 0 -8 5 -15 11 -15 5 0 7 5 4 10 -3 6 -1 10 5 10 6 0
8 5 5 10 -8 13 1 13 28 -2 20 -10 21 -10 8 5 -8 10 -9 17 -3 17 6 0 14 -5 17
-10 4 -6 11 -8 16 -4 5 3 16 0 24 -6 11 -9 15 -9 15 -1 0 6 5 11 11 11 5 0 8
-4 5 -9 -6 -9 16 -21 37 -21 7 0 6 4 -3 10 -20 13 -8 13 27 -1 15 -6 43 -12
61 -14 18 -1 38 -7 44 -13 9 -9 16 -7 30 5 18 16 18 16 12 -2 -5 -13 -4 -16 4
-11 7 4 12 2 12 -3 0 -16 0 -17 10 -50 6 -23 5 -29 -5 -25 -8 3 -16 -4 -20
-16 -9 -30 -17 -18 -9 14 4 16 11 23 18 19 6 -4 5 1 -3 10 -15 18 -26 23 -16
7 3 -5 1 -10 -4 -10 -6 0 -11 -9 -11 -20 0 -11 -4 -20 -10 -20 -5 0 -9 -10 -7
-22 1 -14 -3 -22 -10 -21 -8 2 -10 -4 -6 -14 6 -14 9 -13 24 6 17 21 18 21 16
1 -1 -11 -5 -20 -10 -20 -4 0 -6 -4 -3 -9 4 -5 -3 -7 -14 -4 -12 3 -20 0 -20
-6 0 -7 5 -9 10 -6 6 3 10 3 10 -2 0 -10 -72 -58 -83 -55 -12 4 -32 -21 -33
-40 -4 -66 -4 -64 -18 -46 -7 10 -17 14 -21 10 -5 -4 -5 -1 -1 6 4 7 12 10 17
7 5 -4 9 3 9 14 0 22 -26 30 -28 9 -4 -46 -16 -94 -23 -99 -5 -3 -10 -17 -11
-32 -1 -15 -8 -29 -16 -32 -7 -3 -10 0 -7 6 4 5 2 16 -5 24 -8 10 -8 15 1 21
8 4 9 3 5 -4 -4 -7 -3 -12 2 -12 11 0 22 34 22 68 0 25 -25 26 -25 1 -1 -8 -6
-13 -12 -12 -7 2 -10 -6 -8 -17 2 -13 -2 -20 -11 -20 -17 0 -19 -20 -1 -20 8
-1 7 -5 -4 -13 -9 -7 -14 -19 -11 -27 4 -11 0 -11 -15 3 -20 18 -22 17 -44 -5
-25 -24 -31 -48 -14 -60 6 -5 5 -12 -4 -20 -8 -7 -11 -8 -8 -3 3 6 -3 11 -14
11 -19 0 -26 -11 -11 -19 4 -2 2 -3 -4 -1 -17 4 -33 -16 -27 -32 3 -8 9 -12
13 -9 4 3 10 -2 13 -10 4 -9 1 -12 -9 -8 -8 3 -14 -1 -14 -8 0 -11 -3 -11 -10
1 -7 11 -10 11 -10 2 0 -7 -5 -10 -12 -6 -8 5 -6 10 5 19 11 8 13 15 6 26 -7
9 -12 10 -15 3 -3 -6 -11 -20 -19 -30 -12 -15 -16 -16 -24 -5 -11 16 -19 3
-15 -24 3 -19 2 -19 -15 1 -14 18 -21 20 -37 11 -10 -6 -22 -15 -25 -20 -4 -5
-6 5 -4 24 1 21 10 38 24 47 14 10 21 11 21 3 0 -6 5 -11 10 -11 6 0 5 8 -2
20 -9 14 -14 16 -20 7 -5 -8 -8 -6 -8 7 0 13 -5 16 -16 12 -13 -5 -14 -4 -5 7
18 22 55 16 59 -10 5 -33 17 -28 17 6 0 17 -4 27 -11 24 -7 -2 -15 1 -19 7 -6
9 -10 9 -16 -1 -7 -11 -9 -10 -9 4 0 9 -4 17 -10 17 -5 0 -6 -7 -3 -17 4 -11
3 -14 -5 -9 -17 10 -15 36 3 36 18 0 18 5 5 31 -8 13 -7 19 0 19 6 0 8 5 5 10
-5 8 -11 7 -21 -1 -14 -11 -18 2 -18 63 1 13 -3 15 -12 8 -8 -8 -14 -6 -18 6
-10 27 -7 46 12 60 16 13 16 14 0 8 -21 -7 -23 6 -5 25 9 11 9 12 0 7 -18 -10
-34 68 -19 92 5 8 2 20 -8 31 -12 13 -13 20 -4 29 8 8 9 12 1 12 -6 0 -16 14
-22 31 -8 22 -15 29 -26 25 -9 -3 -13 -2 -10 3 3 5 1 12 -5 16 -5 3 -10 11
-10 16 0 5 16 -7 36 -26 20 -20 38 -34 42 -31 3 3 15 -6 28 -19 13 -14 26 -25
30 -25 4 0 0 8 -9 18 -16 17 -20 40 -15 86 1 17 2 17 13 2 14 -18 30 -22 19
-5 -4 8 0 8 15 0 16 -9 21 -9 21 1 0 9 3 9 9 -2 6 -8 7 -18 4 -24 -3 -5 -1 -6
6 -2 7 5 22 -3 36 -18 24 -26 45 -34 45 -17 0 6 -5 13 -12 17 -7 5 -8 3 -3 -6
5 -8 4 -11 -3 -7 -5 4 -8 17 -4 29 4 15 2 19 -7 13 -9 -5 -12 -1 -9 13 2 12 0
20 -4 19 -10 -3 -37 36 -32 45 2 4 16 -5 29 -18 14 -14 22 -30 19 -36z m6 58
c0 -11 -19 -15 -25 -6 -3 5 1 10 9 10 9 0 16 -2 16 -4z m470 -56 c8 -5 11 -10
5 -10 -5 0 -17 5 -25 10 -8 5 -10 10 -5 10 6 0 17 -5 25 -10z m85 -20 c8 -13
-5 -13 -25 0 -13 8 -13 10 2 10 9 0 20 -4 23 -10z m-1249 -12 c4 -6 3 -8 -4
-4 -6 3 -17 -1 -25 -9 -17 -17 -27 -19 -27 -7 0 7 25 24 47 31 1 1 5 -4 9 -11z
m-51 -38 c32 0 20 -15 -13 -17 -21 -1 -31 1 -24 6 7 4 10 16 7 27 -6 17 -6 18
5 2 6 -10 17 -18 25 -18z m1318 16 c4 -10 1 -13 -7 -10 -10 4 -12 -2 -9 -19 3
-14 0 -34 -6 -46 -14 -25 -44 -29 -34 -5 5 13 7 13 14 2 9 -14 11 -10 14 42 1
19 -3 38 -9 42 -6 5 -2 8 10 8 12 0 24 -7 27 -14z m-763 -110 c0 -3 -4 -8 -10
-11 -5 -3 -10 -1 -10 4 0 6 5 11 10 11 6 0 10 -2 10 -4z m-541 -22 c8 -3 11
-12 8 -25 -4 -16 -3 -18 8 -9 17 14 22 0 17 -46 -4 -32 -5 -33 -18 -17 -12 17
-13 16 -15 -7 -1 -16 -3 -19 -6 -8 -4 14 -7 15 -30 3 -14 -7 -31 -12 -37 -11
-6 2 -8 1 -3 -1 12 -8 8 -25 -5 -20 -20 7 -54 -13 -39 -23 10 -5 9 -9 -3 -13
-8 -3 -18 -1 -22 5 -5 7 -2 8 6 3 9 -5 11 -4 6 4 -6 9 -11 9 -21 1 -8 -7 -20
-8 -26 -4 -7 4 -9 3 -6 -3 8 -13 -38 -38 -53 -28 -8 5 -8 11 2 23 10 12 10 14
0 8 -20 -12 -26 22 -8 49 18 28 21 39 6 30 -5 -3 -10 -4 -10 -1 0 3 14 12 30
21 17 9 30 12 29 8 -4 -22 3 -22 25 1 13 15 30 26 39 26 8 0 17 7 21 15 3 8
15 15 26 15 12 0 18 4 15 10 -6 10 22 7 64 -6z m48 -26 c-3 -8 -6 -5 -6 6 -1
11 2 17 5 13 3 -3 4 -12 1 -19z m493 12 c0 -5 -5 -10 -11 -10 -5 0 -7 5 -4 10
3 6 8 10 11 10 2 0 4 -4 4 -10z m-477 -35 c-3 -9 -8 -14 -10 -11 -3 3 -2 9 2
15 9 16 15 13 8 -4z m483 -50 c-10 -27 -23 -8 -18 27 5 31 6 32 15 11 5 -12 7
-29 3 -38z m668 31 c-4 -9 -13 -15 -20 -12 -7 3 -18 -3 -24 -12 -10 -15 -10
-15 -8 3 2 11 10 20 18 20 8 0 19 6 23 13 12 18 19 9 11 -12z m-1140 -38 c8
-18 16 -27 17 -20 1 6 2 17 3 24 3 26 23 17 21 -9 -2 -19 -1 -20 2 -5 2 12 9
22 14 22 16 0 23 -32 8 -41 -12 -7 -11 -9 2 -9 24 0 29 10 18 32 -6 11 -8 23
-4 26 3 3 8 -4 12 -16 3 -12 9 -19 14 -16 10 6 11 -33 1 -57 -6 -15 -9 -15
-20 -3 -11 12 -10 15 2 20 9 3 16 10 16 15 0 5 -11 2 -25 -7 -14 -9 -22 -21
-19 -28 3 -6 -2 -2 -11 9 -14 17 -17 18 -26 5 -8 -11 -12 -12 -16 -2 -2 6 -14
12 -24 12 -11 0 -17 5 -14 10 4 6 10 8 14 5 5 -2 7 6 6 18 -4 32 -6 34 -15 12
-8 -18 -9 -17 -9 8 -1 36 13 34 33 -5z m1076 3 c0 -12 -20 -25 -27 -18 -7 7 6
27 18 27 5 0 9 -4 9 -9z m-1170 -21 c0 -5 -5 -10 -11 -10 -5 0 -7 5 -4 10 3 6
8 10 11 10 2 0 4 -4 4 -10z m1189 -11 c-22 -13 -31 -11 -17 5 7 8 17 12 22 9
4 -3 2 -9 -5 -14z m-46 -3 c9 5 9 4 0 -6 -13 -15 -37 -4 -26 13 5 8 8 8 11 -1
2 -7 9 -9 15 -6z m-898 -26 c-10 -11 -20 -18 -22 -16 -6 5 30 44 36 39 2 -1
-4 -12 -14 -23z m925 0 c0 -5 -5 -10 -11 -10 -5 0 -7 5 -4 10 3 6 8 10 11 10
2 0 4 -4 4 -10z m-106 -36 c3 -8 2 -12 -4 -9 -6 3 -10 10 -10 16 0 14 7 11 14
-7z m-54 -18 c0 -3 -4 -8 -10 -11 -5 -3 -10 -1 -10 4 0 6 5 11 10 11 6 0 10
-2 10 -4z m40 -76 c0 -5 -5 -10 -11 -10 -5 0 -7 5 -4 10 3 6 8 10 11 10 2 0 4
-4 4 -10z m-126 -9 c3 -4 -6 -19 -19 -31 -20 -19 -25 -20 -25 -7 0 8 7 23 16
31 18 18 21 19 28 7z m-4 -48 c0 -5 -5 -15 -10 -23 -7 -12 -9 -10 -7 8 1 19
17 33 17 15z m-24 -55 c4 -7 3 -8 -4 -4 -7 4 -12 1 -12 -9 0 -9 -5 -13 -10
-10 -8 5 -7 11 1 21 14 17 16 17 25 2z m2148 -14 c9 -8 16 -20 16 -26 0 -6 -9
-1 -20 12 -29 33 -25 44 4 14z m164 -53 c-14 -50 -16 -49 -13 6 3 60 3 61 14
44 5 -8 5 -29 -1 -50z m-2586 12 c-6 -2 -9 -10 -6 -15 4 -7 2 -8 -5 -4 -13 9
-5 26 12 25 9 0 8 -2 -1 -6z m-32 -48 c-7 -8 -17 -15 -23 -15 -5 0 -2 9 8 20
21 23 35 19 15 -5z m82 1 c4 -17 1 -23 -9 -19 -14 5 -17 25 -6 36 9 10 10 9
15 -17z m2418 13 c0 -26 -33 -77 -56 -88 -34 -15 -54 -14 -54 4 0 8 6 15 13
15 7 0 18 9 25 20 7 12 17 18 22 15 6 -3 10 3 10 14 0 17 11 28 33 30 4 1 7
-4 7 -10z m-2390 -14 c7 -9 8 -15 2 -15 -5 0 -12 7 -16 15 -3 8 -4 15 -2 15 2
0 9 -7 16 -15z m72 0 c3 0 9 -3 13 -7 4 -3 0 -5 -9 -4 -9 1 -22 8 -29 16 -10
10 -9 11 3 4 8 -5 18 -9 22 -9z m48 5 c0 -5 -5 -10 -11 -10 -5 0 -7 5 -4 10 3
6 8 10 11 10 2 0 4 -4 4 -10z m-1048 -15 c0 -5 -5 -11 -10 -13 -5 -1 -9 4 -9
13 0 9 4 14 9 13 5 -2 10 -8 10 -13z m973 -4 c3 -5 1 -12 -5 -16 -5 -3 -10 1
-10 9 0 18 6 21 15 7z m-805 -152 c0 -4 -12 -14 -27 -21 -19 -9 -29 -22 -30
-38 -1 -22 -1 -22 4 -2 6 30 21 28 16 -2 -5 -24 -43 -44 -43 -23 0 8 -4 7 -9
-2 -6 -9 -9 0 -9 26 -1 28 5 42 19 51 11 7 24 10 29 7 5 -3 11 -2 14 3 6 11
36 11 36 1z m24 -84 c-4 -8 -14 -15 -23 -16 -9 -1 -6 -4 9 -9 14 -4 18 -9 10
-10 -57 -7 -59 -6 -51 7 6 11 33 31 58 42 1 1 0 -6 -3 -14z m34 -30 c-2 -12
-6 -11 -16 6 -8 11 -9 18 -3 14 6 -3 11 0 12 7 0 10 2 10 6 1 2 -7 3 -20 1
-28z m34 0 c4 -20 2 -23 -8 -14 -7 6 -10 17 -7 25 7 20 10 18 15 -11z m-148
-21 c8 -21 8 -24 -3 -24 -5 0 -11 9 -14 20 -6 24 8 27 17 4z m116 -8 c0 -3 -4
-8 -10 -11 -5 -3 -10 -1 -10 4 0 6 5 11 10 11 6 0 10 -2 10 -4z m235 -206 c4
-6 11 -8 16 -5 5 4 9 -3 9 -14 0 -11 5 -23 10 -26 6 -3 10 -14 9 -23 0 -11 -3
-12 -6 -4 -6 16 -21 15 -25 -2 -2 -8 -10 7 -19 35 -14 44 -11 66 6 39z m75
-45 c4 -5 3 -19 -1 -30 -9 -18 -9 -18 -5 3 2 12 0 22 -5 22 -5 0 -8 15 -8 33
2 27 2 28 6 7 3 -14 8 -29 13 -35z m-235 -32 c0 -34 -2 -59 -4 -57 -2 2 -10
-4 -18 -14 -8 -9 -12 -11 -8 -4 3 6 1 12 -4 12 -6 0 -11 -7 -11 -15 0 -9 -6
-12 -15 -9 -8 4 -15 1 -15 -5 0 -6 -6 -8 -13 -5 -16 6 -99 -30 -90 -39 3 -4 1
-7 -5 -7 -7 0 -12 4 -12 10 0 5 -7 7 -15 4 -8 -4 -12 -10 -9 -15 3 -5 1 -9 -5
-9 -5 0 -11 5 -13 10 -2 7 -24 7 -65 2 -34 -5 -68 -5 -75 0 -9 5 -9 8 -1 8 8
0 8 6 0 24 -8 16 -14 21 -19 13 -5 -8 -8 -5 -8 8 0 17 -2 18 -11 5 -8 -11 -9
-8 -4 15 8 36 44 78 62 71 7 -3 19 4 27 15 15 22 107 41 142 29 10 -4 42 1 72
10 33 10 67 14 86 11 31 -7 31 -8 31 -68z m135 57 c6 -8 9 -31 8 -50 0 -23 -2
-27 -5 -12 -5 28 -23 29 -23 1 0 -11 -4 -17 -10 -14 -5 3 -10 17 -10 31 0 14
-4 33 -10 43 -8 15 -5 18 16 17 14 -1 29 -8 34 -16z m-100 -1 c0 -8 5 -8 15 1
8 7 15 11 16 9 0 -2 2 -13 4 -23 2 -11 6 -30 9 -42 4 -13 2 -26 -4 -29 -6 -3
-10 5 -10 19 0 14 -5 28 -12 32 -8 5 -9 2 -5 -9 3 -9 0 -22 -7 -29 -7 -8 -15
-20 -19 -28 -3 -8 -6 13 -6 48 -1 35 3 62 9 62 6 0 10 -5 10 -11z m227 -21
c-3 -8 -6 -5 -6 6 -1 11 2 17 5 13 3 -3 4 -12 1 -19z m-4627 -648 c0 -5 8 -11
18 -11 16 -1 16 -2 0 -6 -12 -3 -18 -14 -18 -34 0 -36 -14 -37 -63 -4 -48 33
-47 45 3 45 22 0 40 5 40 10 0 6 5 10 10 10 6 0 10 -4 10 -10z m20 -120 c27
-51 -29 -89 -77 -53 -26 19 -50 63 -34 63 4 0 13 -11 19 -25 12 -27 35 -36 26
-10 -15 38 47 61 66 25z m2 -114 c11 -25 6 -56 -10 -56 -4 0 -8 12 -7 27 0 32
-24 43 -32 14 -6 -24 -23 -28 -23 -6 0 8 -7 15 -15 15 -10 0 -15 -10 -15 -27
0 -20 -3 -24 -11 -16 -7 7 -9 23 -5 38 6 22 11 26 32 22 13 -2 27 0 30 4 11
18 45 8 56 -15z m8 -116 c0 -47 -8 -49 -40 -15 -30 32 -65 30 -64 -2 0 -13 -3
-23 -7 -23 -14 0 -21 21 -15 46 8 31 51 33 83 2 l23 -21 0 26 c0 15 5 27 10
27 6 0 10 -18 10 -40z m-19 -79 c20 -16 22 -23 13 -38 -17 -27 -58 -39 -89
-25 -37 17 -43 41 -16 64 30 23 63 23 92 -1z m-3 -107 c12 -8 22 -20 22 -26 0
-21 -33 -48 -59 -48 -31 0 -71 25 -71 45 0 18 39 45 65 45 11 0 31 -7 43 -16z
m-8 -104 c0 -5 8 -11 18 -11 16 -1 16 -2 0 -6 -12 -3 -18 -14 -18 -34 0 -36
-14 -37 -63 -4 -48 33 -47 45 3 45 22 0 40 5 40 10 0 6 5 10 10 10 6 0 10 -4
10 -10z m0 -110 c0 -5 8 -11 18 -11 16 -1 16 -2 0 -6 -12 -3 -18 -14 -18 -34
0 -36 -14 -37 -63 -4 -48 33 -47 45 3 45 22 0 40 5 40 10 0 6 5 10 10 10 6 0
10 -4 10 -10z m30 -140 c0 -47 -8 -49 -40 -15 -30 32 -65 30 -64 -2 0 -13 -3
-23 -7 -23 -14 0 -21 21 -15 46 8 31 51 33 83 2 l23 -21 0 26 c0 15 5 27 10
27 6 0 10 -18 10 -40z m-77 -91 c-3 -10 -1 -19 5 -19 16 0 24 18 11 22 -8 3
-7 7 2 15 11 8 19 5 34 -10 17 -17 17 -19 3 -14 -12 4 -18 1 -18 -8 0 -8 8
-15 18 -16 14 0 14 -2 -3 -8 -11 -5 -25 -4 -32 1 -7 5 -16 7 -20 5 -5 -3 -17
1 -28 9 -19 14 -19 14 1 15 17 0 17 1 2 12 -15 10 -15 12 0 23 20 15 32 1 25
-27z m75 -136 c-26 -2 -71 -2 -100 0 -29 2 -8 3 47 3 55 0 79 -1 53 -3z m-17
-111 c-26 -18 -27 -32 -1 -32 11 0 20 -4 20 -10 0 -6 -32 -10 -75 -10 -43 0
-75 4 -75 10 0 6 20 10 45 10 49 0 56 8 25 28 -11 7 -20 17 -20 23 0 7 9 5 24
-5 23 -14 26 -14 48 4 15 12 24 14 27 7 2 -6 -6 -17 -18 -25z m4671 -24 c-9
-9 -12 -7 -12 12 0 19 3 21 12 12 9 -9 9 -15 0 -24z m-2 -38 c0 -11 -4 -20
-10 -20 -5 0 -10 9 -10 20 0 11 5 20 10 20 6 0 10 -9 10 -20z m3047 -12 c-3
-8 -6 -5 -6 6 -1 11 2 17 5 13 3 -3 4 -12 1 -19z m-7775 -20 c2 -17 10 -23 28
-23 18 0 26 6 28 23 4 27 22 30 22 3 0 -25 -26 -51 -50 -51 -24 0 -50 26 -50
51 0 27 18 24 22 -3z m4708 -26 c0 -10 -7 -27 -15 -38 -14 -19 -14 -19 -15 3
0 12 5 25 10 28 6 4 8 11 5 16 -4 5 -1 9 4 9 6 0 11 -8 11 -18z m3360 4 c0 -9
-9 -14 -20 -13 -25 2 -26 14 -2 20 9 3 18 5 20 6 1 0 2 -5 2 -13z m-8006 -62
c19 -18 20 -28 6 -55 -19 -35 -90 -15 -90 26 0 20 28 45 50 45 10 0 26 -7 34
-16z m8143 -26 c-3 -8 -6 -5 -6 6 -1 11 2 17 5 13 3 -3 4 -12 1 -19z m53 12
c0 -5 -7 -10 -15 -10 -8 0 -15 5 -15 10 0 6 7 10 15 10 8 0 15 -4 15 -10z
m-3570 -34 c0 -8 -4 -18 -10 -21 -5 -3 -10 -17 -10 -30 0 -13 -4 -26 -8 -29
-10 -6 -10 40 1 50 4 4 7 16 7 26 0 10 5 18 10 18 6 0 10 -6 10 -14z m3457
-12 c-9 -9 -28 6 -21 18 4 6 10 6 17 -1 6 -6 8 -13 4 -17z m-8147 -34 c0 -5
14 -10 30 -10 17 0 30 5 30 12 0 9 3 9 11 1 18 -18 1 -33 -36 -33 -18 0 -36
-6 -39 -12 -5 -10 -7 -10 -12 0 -3 6 -12 12 -20 12 -8 0 -14 5 -14 10 0 6 7
10 15 10 8 0 15 5 15 10 0 6 5 10 10 10 6 0 10 -4 10 -10z m8264 -45 c-7 -17
-20 -20 -28 -6 -7 10 3 21 20 21 8 0 11 -6 8 -15z m-8192 -39 c11 -25 6 -56
-10 -56 -4 0 -8 12 -7 27 0 37 -21 40 -40 4 -25 -49 -75 -33 -75 23 0 24 18
19 22 -6 5 -32 21 -32 40 2 21 37 54 40 70 6z m4588 3 c0 -5 -4 -9 -10 -9 -5
0 -10 7 -10 16 0 8 5 12 10 9 6 -3 10 -10 10 -16z m3710 -9 c0 -5 -5 -10 -11
-10 -5 0 -7 5 -4 10 3 6 8 10 11 10 2 0 4 -4 4 -10z m-3729 -53 c-8 -8 -11 -3
-11 19 1 25 2 27 11 11 8 -14 8 -22 0 -30z m3699 3 c0 -18 -16 -18 -38 0 -30
25 -28 31 8 19 17 -6 30 -15 30 -19z m51 -3 c-1 -12 -15 -9 -19 4 -3 6 1 10 8
8 6 -3 11 -8 11 -12z m-3751 -41 c0 -8 -3 -17 -7 -19 -5 -3 -8 -37 -8 -76 0
-47 -4 -71 -12 -71 -12 0 -11 131 2 163 9 21 25 23 25 3z m3780 0 c0 -2 -7 -9
-15 -16 -12 -10 -15 -10 -15 4 0 9 7 16 15 16 8 0 15 -2 15 -4z m66 -23 c13
-13 14 -18 3 -22 -7 -2 -15 1 -17 8 -2 6 -8 11 -13 11 -6 0 -7 -4 -4 -10 3 -5
-3 -10 -14 -10 -20 0 -20 1 -3 19 22 24 27 25 48 4z m-8448 -36 c4 -30 22 -27
22 4 0 10 5 19 10 19 13 0 13 -26 0 -51 -13 -23 -53 -25 -74 -3 -19 19 -20 36
-4 52 20 20 43 9 46 -21z m8749 7 c-3 -3 -12 -4 -19 -1 -8 3 -5 6 6 6 11 1 17
-2 13 -5z m188 -72 c-6 -7 -34 11 -29 19 3 5 11 3 19 -4 7 -6 12 -13 10 -15z
m-325 -8 c0 -8 -5 -12 -10 -9 -6 4 -8 11 -5 16 9 14 15 11 15 -7z m40 -1 c0
-2 -7 -18 -17 -36 -11 -22 -18 -27 -21 -17 -3 7 0 16 6 18 7 2 9 14 6 28 -5
19 -3 23 10 18 9 -3 16 -8 16 -11z m-8621 -24 c26 -46 10 -59 -69 -59 -40 0
-70 4 -70 10 0 6 11 10 25 10 18 0 25 5 25 19 0 27 28 53 53 49 12 -2 28 -15
36 -29z m8652 17 c5 3 9 0 9 -5 0 -6 -7 -11 -15 -11 -8 0 -15 8 -14 18 0 10 3
12 6 4 2 -6 9 -10 14 -6z m36 -8 c-3 -8 -6 -5 -6 6 -1 11 2 17 5 13 3 -3 4
-12 1 -19z m203 2 c0 -5 -5 -10 -11 -10 -5 0 -7 5 -4 10 3 6 8 10 11 10 2 0 4
-4 4 -10z m210 6 c0 -3 -4 -8 -10 -11 -5 -3 -10 -1 -10 4 0 6 5 11 10 11 6 0
10 -2 10 -4z m-344 -16 c8 0 14 -8 14 -17 0 -15 -2 -15 -9 -4 -5 8 -16 11 -26
7 -9 -3 -21 -3 -26 0 -14 9 1 26 18 20 8 -3 21 -6 29 -6z m198 -6 c25 -24 19
-44 -11 -45 l-28 -2 28 -4 c15 -2 25 -9 21 -14 -3 -6 3 -13 15 -16 32 -8 25
-20 -9 -15 -16 2 -30 9 -30 14 0 5 -8 7 -19 3 -18 -5 -39 21 -26 33 3 3 5 0 5
-6 0 -7 9 -3 20 8 22 22 26 40 10 40 -5 0 -10 5 -10 10 0 15 16 12 34 -6z
m-414 -8 c0 -3 -4 -8 -10 -11 -5 -3 -10 -1 -10 4 0 6 5 11 10 11 6 0 10 -2 10
-4z m110 -27 c0 -4 -7 -6 -15 -3 -8 4 -15 10 -15 15 0 4 7 6 15 3 8 -4 15 -10
15 -15z m200 12 c0 -10 -26 -9 -36 2 -4 4 2 7 14 7 12 0 22 -4 22 -9z m45 -1
c3 -5 1 -10 -4 -10 -6 0 -11 5 -11 10 0 6 2 10 4 10 3 0 8 -4 11 -10z m-215
-10 c0 -5 -2 -10 -4 -10 -3 0 -8 5 -11 10 -3 6 -1 10 4 10 6 0 11 -4 11 -10z
m353 -3 c4 3 7 0 7 -8 0 -9 -11 -16 -30 -17 -33 -3 -36 2 -17 22 7 9 16 11 23
5 6 -5 14 -6 17 -2z m-463 -7 c0 -5 3 -9 8 -8 4 0 18 -4 32 -10 23 -10 21 -11
-17 -10 -35 1 -43 5 -43 20 0 10 5 18 10 18 6 0 10 -4 10 -10z m175 0 c8 -13
-15 -13 -35 0 -12 8 -11 10 7 10 12 0 25 -4 28 -10z m38 -6 c-7 -3 -9 -12 -6
-20 3 -8 -1 -14 -11 -14 -18 0 -19 2 -10 24 3 9 14 16 23 15 9 0 11 -3 4 -5z
m-118 -24 c3 -5 1 -10 -4 -10 -6 0 -11 5 -11 10 0 6 2 10 4 10 3 0 8 -4 11
-10z m83 -38 c6 -2 12 2 12 8 0 10 3 10 15 0 18 -15 10 -31 -11 -23 -14 5 -15
3 -5 -14 10 -19 8 -21 -24 -20 -23 1 -35 6 -35 15 0 9 -6 12 -16 8 -8 -3 -12
-2 -9 3 3 5 -3 12 -12 14 -12 3 -10 5 8 6 14 0 30 -4 35 -9 7 -7 11 -6 11 5 0
8 -6 15 -13 15 -23 0 -24 29 -1 32 15 2 24 -3 27 -16 3 -11 11 -21 18 -24z
m-8754 22 c19 -18 20 -28 6 -55 -19 -35 -90 -15 -90 26 0 20 28 45 50 45 10 0
26 -7 34 -16z m8864 -2 c2 -6 -5 -9 -15 -7 -10 2 -26 4 -35 4 -10 1 -18 5 -18
10 0 12 63 6 68 -7z m212 -12 c0 -11 -4 -20 -10 -20 -5 0 -10 9 -10 20 0 11 5
20 10 20 6 0 10 -9 10 -20z m-445 0 c3 -5 1 -10 -4 -10 -6 0 -11 5 -11 10 0 6
2 10 4 10 3 0 8 -4 11 -10z m499 -7 c9 4 16 2 16 -4 0 -17 -29 -21 -44 -6 -8
8 -12 17 -9 21 4 3 10 1 14 -5 4 -7 14 -9 23 -6z m-256 -22 c3 -8 -1 -12 -9
-9 -7 2 -15 10 -17 17 -3 8 1 12 9 9 7 -2 15 -10 17 -17z m122 -3 c0 7 8 12
18 12 13 0 18 -9 20 -30 1 -16 -2 -30 -8 -30 -5 0 -9 3 -9 8 3 19 -2 23 -16
12 -22 -18 -45 -5 -43 24 2 24 3 24 20 9 11 -10 18 -12 18 -5z m-72 -51 c-10
-20 -18 -25 -34 -21 -12 3 -25 1 -29 -6 -5 -8 -10 -8 -20 0 -17 15 -63 2 -68
-18 -3 -12 -5 -10 -6 6 0 12 -5 22 -10 22 -5 0 -7 -9 -4 -20 3 -11 1 -20 -5
-20 -11 0 -21 29 -15 47 3 8 13 9 34 3 17 -5 40 -5 53 0 15 5 27 5 33 -1 7 -7
15 -6 24 4 8 7 20 12 27 9 7 -2 12 5 12 19 0 15 3 20 10 13 7 -7 6 -19 -2 -37z
m-88 23 c0 -5 -2 -10 -4 -10 -3 0 -8 5 -11 10 -3 6 -1 10 4 10 6 0 11 -4 11
-10z m-160 -10 c0 -5 -4 -10 -10 -10 -5 0 -10 5 -10 10 0 6 5 10 10 10 6 0 10
-4 10 -10z m50 -20 c0 -5 -4 -10 -10 -10 -5 0 -10 5 -10 10 0 6 5 10 10 10 6
0 10 -4 10 -10z m-8713 -16 c3 -8 1 -26 -5 -40 -17 -35 -58 -33 -80 6 -11 19
-25 30 -39 30 -13 0 -23 5 -23 10 0 6 30 10 70 10 55 0 72 -4 77 -16z m9023
-9 c0 -6 -7 -12 -15 -12 -8 0 -15 6 -15 12 0 6 7 12 15 12 8 0 15 -6 15 -12z
m-120 -10 c11 7 14 -7 4 -18 -8 -7 -44 15 -44 27 0 4 7 3 15 -4 8 -6 19 -9 25
-5z m180 -25 c0 -5 -2 -10 -4 -10 -3 0 -8 5 -11 10 -3 6 -1 10 4 10 6 0 11 -4
11 -10z m46 -22 c16 -18 17 -21 2 -15 -9 3 -19 1 -21 -6 -2 -7 -4 0 -3 15 0
16 1 28 2 28 0 0 9 -10 20 -22z m178 -3 c4 -12 2 -13 -13 -6 -10 6 -21 7 -25
4 -3 -3 -6 -1 -6 5 0 18 37 15 44 -3z m-9309 -24 c-3 -6 -13 -11 -21 -11 -23
0 -18 -57 6 -63 11 -3 20 -10 20 -15 0 -6 -29 -1 -67 12 -38 13 -68 29 -68 36
0 7 29 23 65 35 67 23 77 24 65 6z m8945 -11 c0 -5 -5 -10 -11 -10 -5 0 -7 5
-4 10 3 6 8 10 11 10 2 0 4 -4 4 -10z m190 -29 c0 -6 -4 -12 -8 -15 -5 -3 -9
1 -9 9 0 8 4 15 9 15 4 0 8 -4 8 -9z"/>
<path d="M5312 5556 c4 -25 24 -32 32 -11 4 10 2 14 -5 9 -6 -4 -15 0 -21 7
-7 11 -8 10 -6 -5z"/>
<path d="M5291 5544 c0 -11 3 -14 6 -6 3 7 2 16 -1 19 -3 4 -6 -2 -5 -13z"/>
<path d="M5270 5522 c0 -12 19 -26 26 -19 2 2 -2 10 -11 17 -9 8 -15 8 -15 2z"/>
<path d="M5044 5481 c3 -5 -3 -11 -14 -14 -11 -3 -20 -10 -20 -15 0 -6 9 -8
20 -5 11 3 20 10 20 15 0 6 7 8 15 4 8 -3 15 -1 15 3 0 5 -7 12 -16 15 -21 8
-26 8 -20 -3z"/>
<path d="M5096 5475 c-9 -24 -7 -32 3 -16 7 11 10 9 16 -8 9 -30 24 -26 22 6
-3 31 -31 43 -41 18z"/>
<path d="M5280 5481 c-8 -6 -17 -8 -21 -5 -4 2 -5 -6 -1 -18 4 -16 7 -18 10
-8 3 8 12 20 21 27 19 14 13 17 -9 4z"/>
<path d="M5055 5440 c-3 -6 1 -13 10 -16 21 -9 26 -2 10 13 -9 8 -16 9 -20 3z"/>
<path d="M5183 5433 c3 -5 -7 -10 -23 -11 -53 -3 -59 -5 -64 -19 -6 -15 10
-18 19 -3 3 5 21 7 39 5 35 -5 58 17 34 31 -6 4 -8 3 -5 -3z"/>
<path d="M4945 5403 c2 -10 4 -20 4 -22 2 -9 31 23 30 33 0 6 -3 6 -6 -2 -4
-9 -8 -10 -18 -2 -10 9 -13 7 -10 -7z"/>
<path d="M5016 5411 c-3 -5 0 -11 8 -14 15 -6 26 1 26 15 0 11 -27 10 -34 -1z"/>
<path d="M5058 5378 c-10 -10 -14 -18 -10 -18 4 0 13 5 20 12 9 9 12 8 12 -5
0 -9 4 -17 8 -17 12 0 11 24 -2 36 -7 6 -17 4 -28 -8z"/>
<path d="M5000 5380 c8 -5 20 -10 25 -10 6 0 3 5 -5 10 -8 5 -19 10 -25 10 -5
0 -3 -5 5 -10z"/>
<path d="M5120 5380 c-13 -8 -12 -10 3 -10 9 0 17 5 17 10 0 12 -1 12 -20 0z"/>
<path d="M5184 5374 c18 -17 22 -39 6 -29 -5 3 -10 4 -10 1 0 -3 12 -12 28
-20 25 -14 19 -21 -15 -17 -18 2 -16 -7 4 -27 12 -12 18 -13 21 -4 2 6 10 12
18 12 16 0 19 16 4 25 -5 3 -7 12 -3 20 3 10 -1 15 -12 15 -9 0 -14 4 -10 9 3
6 -3 15 -14 20 -28 16 -35 13 -17 -5z"/>
<path d="M5120 5350 c0 -5 5 -10 10 -10 6 0 10 5 10 10 0 6 -4 10 -10 10 -5 0
-10 -4 -10 -10z"/>
<path d="M5057 5336 c-4 -10 -1 -13 8 -9 8 3 12 9 9 14 -7 12 -11 11 -17 -5z"/>
<path d="M5076 5315 c-11 -8 -29 -13 -40 -9 -17 4 -18 3 -6 -5 12 -9 13 -11 1
-11 -8 0 -12 -3 -9 -6 7 -7 64 21 73 36 8 13 4 12 -19 -5z"/>
<path d="M4956 5303 c-6 -14 -5 -15 5 -6 7 7 10 15 7 18 -3 3 -9 -2 -12 -12z"/>
<path d="M4980 5300 c0 -5 5 -10 11 -10 5 0 7 5 4 10 -3 6 -8 10 -11 10 -2 0
-4 -4 -4 -10z"/>
<path d="M5116 5291 c-3 -5 0 -11 7 -14 8 -3 14 1 14 9 0 16 -13 19 -21 5z"/>
<path d="M4850 5259 c0 -5 -5 -7 -12 -3 -6 4 -8 3 -4 -4 9 -15 45 -11 39 5 -6
16 -23 17 -23 2z"/>
<path d="M5010 5258 c0 -4 4 -8 9 -8 6 0 12 4 15 8 3 5 -1 9 -9 9 -8 0 -15 -4
-15 -9z"/>
<path d="M4860 5220 c0 -5 -11 -12 -25 -16 -14 -3 -25 -11 -25 -16 0 -6 9 -8
20 -5 12 3 20 0 20 -7 0 -6 9 -17 20 -24 18 -11 19 -10 9 15 -8 22 -7 30 5 39
9 6 13 14 9 17 -10 11 -33 8 -33 -3z"/>
<path d="M5000 5210 c6 -11 13 -20 16 -20 2 0 0 9 -6 20 -6 11 -13 20 -16 20
-2 0 0 -9 6 -20z"/>
<path d="M4940 5181 c0 -6 4 -13 10 -16 6 -3 7 1 4 9 -7 18 -14 21 -14 7z"/>
<path d="M4793 5169 c3 -9 0 -22 -6 -29 -9 -10 -9 -11 2 -5 11 6 13 4 8 -8 -3
-10 -5 -17 -3 -17 3 0 12 -3 21 -7 15 -5 16 -3 6 15 -9 18 -9 21 3 16 10 -4
14 0 13 14 0 12 -7 19 -17 17 -8 -1 -19 3 -23 9 -6 7 -7 5 -4 -5z"/>
<path d="M4920 5156 c0 -2 8 -10 18 -17 15 -13 16 -12 3 4 -13 16 -21 21 -21
13z"/>
<path d="M4850 5130 c0 -5 5 -10 10 -10 6 0 10 5 10 10 0 6 -4 10 -10 10 -5 0
-10 -4 -10 -10z"/>
<path d="M5415 5460 c-3 -5 -2 -10 4 -10 5 0 13 5 16 10 3 6 2 10 -4 10 -5 0
-13 -4 -16 -10z"/>
<path d="M4670 4391 c0 -5 5 -13 10 -16 6 -3 10 -2 10 4 0 5 -4 13 -10 16 -5
3 -10 2 -10 -4z"/>
<path d="M5186 4272 c-2 -4 4 -9 15 -9 11 -1 17 2 14 8 -7 11 -22 12 -29 1z"/>
<path d="M5676 4248 c3 -5 10 -6 15 -3 13 9 11 12 -6 12 -8 0 -12 -4 -9 -9z"/>
<path d="M5175 4231 c-3 -5 -2 -12 3 -15 5 -3 9 1 9 9 0 17 -3 19 -12 6z"/>
<path d="M5520 4206 c7 -7 14 -6 21 1 9 9 7 12 -9 10 -14 -1 -18 -5 -12 -11z"/>
<path d="M5457 4189 c7 -7 15 -10 18 -7 3 3 -2 9 -12 12 -14 6 -15 5 -6 -5z"/>
<path d="M5734 4193 c4 -7 2 -13 -4 -13 -6 0 -8 -5 -4 -11 4 -8 9 -8 17 0 8 8
7 14 -2 24 -11 10 -13 10 -7 0z"/>
<path d="M5436 4177 c3 -10 9 -15 12 -12 3 3 0 11 -7 18 -10 9 -11 8 -5 -6z"/>
<path d="M5175 4170 c3 -5 8 -10 11 -10 2 0 4 5 4 10 0 6 -5 10 -11 10 -5 0
-7 -4 -4 -10z"/>
<path d="M5245 4169 c-4 -6 -5 -12 -2 -15 2 -3 7 2 10 11 7 17 1 20 -8 4z"/>
<path d="M5300 4160 c0 -5 5 -10 11 -10 5 0 7 5 4 10 -3 6 -8 10 -11 10 -2 0
-4 -4 -4 -10z"/>
<path d="M5695 4160 c3 -5 8 -10 11 -10 2 0 4 5 4 10 0 6 -5 10 -11 10 -5 0
-7 -4 -4 -10z"/>
<path d="M5193 4135 c0 -8 4 -15 9 -15 4 0 8 4 8 9 0 6 -4 12 -8 15 -5 3 -9
-1 -9 -9z"/>
<path d="M5715 4100 c-3 -5 -1 -10 4 -10 6 0 11 5 11 10 0 6 -2 10 -4 10 -3 0
-8 -4 -11 -10z"/>
<path d="M5580 4070 c0 -5 4 -10 9 -10 6 0 13 5 16 10 3 6 -1 10 -9 10 -9 0
-16 -4 -16 -10z"/>
<path d="M5694 4068 c-4 -6 -3 -8 4 -4 5 3 12 1 14 -6 3 -8 6 -9 11 -1 4 6 0
13 -8 17 -8 3 -17 0 -21 -6z"/>
<path d="M5185 4000 c-3 -5 -1 -10 4 -10 6 0 11 5 11 10 0 6 -2 10 -4 10 -3 0
-8 -4 -11 -10z"/>
<path d="M5460 3990 c0 -5 7 -7 15 -4 8 4 15 8 15 10 0 2 -7 4 -15 4 -8 0 -15
-4 -15 -10z"/>
<path d="M5564 3992 c5 -8 0 -12 -13 -12 -14 0 -21 -6 -20 -17 0 -11 3 -13 6
-5 2 6 8 10 13 7 4 -3 13 2 19 9 9 11 9 16 0 22 -8 4 -9 3 -5 -4z"/>
<path d="M5450 3955 c-7 -9 -8 -15 -2 -15 5 0 12 7 16 15 3 8 4 15 2 15 -2 0
-9 -7 -16 -15z"/>
<path d="M5465 3921 c-6 -11 9 -23 19 -14 9 9 7 23 -3 23 -6 0 -12 -4 -16 -9z"/>
<path d="M5170 3915 c0 -5 5 -17 10 -25 5 -8 10 -10 10 -5 0 6 -5 17 -10 25
-5 8 -10 11 -10 5z"/>
<path d="M5360 3916 c0 -2 7 -7 16 -10 8 -3 12 -2 9 4 -6 10 -25 14 -25 6z"/>
<path d="M5412 3880 c0 -14 2 -19 5 -12 2 6 2 18 0 25 -3 6 -5 1 -5 -13z"/>
<path d="M5430 3889 c0 -5 5 -7 10 -4 6 3 10 8 10 11 0 2 -4 4 -10 4 -5 0 -10
-5 -10 -11z"/>
<path d="M5486 3892 c-3 -5 1 -9 9 -9 8 0 12 4 9 9 -3 4 -7 8 -9 8 -2 0 -6 -4
-9 -8z"/>
<path d="M5440 3869 c-11 -8 -9 -9 10 -3 22 6 23 5 11 -10 -12 -14 -10 -16 13
-14 31 3 30 2 10 22 -18 19 -24 19 -44 5z"/>
<path d="M5365 3835 c-25 -12 -26 -14 -5 -9 14 4 29 10 35 15 12 12 5 11 -30
-6z"/>
<path d="M5420 3840 c-8 -5 -12 -12 -9 -15 4 -3 12 1 19 10 14 17 11 19 -10 5z"/>
<path d="M5226 3812 c-3 -5 1 -9 9 -9 8 0 15 4 15 9 0 4 -4 8 -9 8 -6 0 -12
-4 -15 -8z"/>
<path d="M5385 3811 c3 -5 0 -13 -5 -16 -13 -8 -34 -56 -31 -68 1 -5 -3 -6 -8
-3 -5 4 -12 2 -16 -4 -7 -11 5 -13 29 -4 9 3 13 10 10 16 -3 5 3 12 14 15 24
6 36 29 20 39 -7 4 -6 9 2 14 8 5 7 9 -5 13 -9 4 -13 3 -10 -2z"/>
<path d="M5287 3716 c-4 -10 -3 -15 3 -11 6 3 10 1 10 -6 0 -7 3 -10 6 -6 3 3
2 13 -4 22 -8 16 -9 16 -15 1z"/>
<path d="M5197 3684 c-3 -3 -3 -12 0 -20 4 -10 9 -11 23 -1 14 8 16 13 7 19
-15 9 -22 10 -30 2z"/>
<path d="M5282 3676 c7 -8 15 -12 17 -11 5 6 -10 25 -20 25 -5 0 -4 -6 3 -14z"/>
<path d="M4412 3390 c0 -14 2 -19 5 -12 2 6 2 18 0 25 -3 6 -5 1 -5 -13z"/>
<path d="M4555 3070 c-3 -5 -1 -10 4 -10 6 0 11 5 11 10 0 6 -2 10 -4 10 -3 0
-8 -4 -11 -10z"/>
<path d="M4580 2995 c0 -8 4 -15 10 -15 5 0 7 7 4 15 -4 8 -8 15 -10 15 -2 0
-4 -7 -4 -15z"/>
<path d="M195 2370 c3 -5 15 -15 26 -20 16 -9 19 -7 19 10 0 15 -7 20 -26 20
-14 0 -22 -4 -19 -10z"/>
<path d="M237 2274 c-15 -15 -7 -45 11 -42 9 2 17 12 17 22 0 20 -16 31 -28
20z"/>
<path d="M193 1963 c-20 -8 -15 -31 8 -38 28 -9 69 2 69 19 0 22 -44 33 -77
19z"/>
<path d="M193 1853 c-20 -8 -15 -31 8 -38 28 -9 69 2 69 19 0 22 -44 33 -77
19z"/>
<path d="M195 1730 c3 -5 15 -15 26 -20 16 -9 19 -7 19 10 0 15 -7 20 -26 20
-14 0 -22 -4 -19 -10z"/>
<path d="M195 1620 c3 -5 15 -15 26 -20 16 -9 19 -7 19 10 0 15 -7 20 -26 20
-14 0 -22 -4 -19 -10z"/>
<path d="M214 975 c-4 -9 -2 -21 4 -27 16 -16 47 -5 47 17 0 26 -42 34 -51 10z"/>
<path d="M210 656 c0 -8 5 -18 10 -21 6 -3 10 3 10 14 0 12 -4 21 -10 21 -5 0
-10 -6 -10 -14z"/>
<path d="M214 555 c-4 -9 -2 -21 4 -27 16 -16 47 -5 47 17 0 26 -42 34 -51 10z"/>
<path d="M214 445 c-4 -9 -2 -21 4 -27 16 -16 47 -5 47 17 0 26 -42 34 -51 10z"/>
<path d="M212 323 c2 -12 12 -18 28 -18 16 0 26 6 28 18 3 13 -3 17 -28 17
-25 0 -31 -4 -28 -17z"/>
<path d="M203 222 c-29 -4 -29 -18 -1 -25 25 -7 31 -4 26 15 -2 7 -13 12 -25
10z"/>
<path d="M8465 1091 c-3 -6 -1 -11 4 -11 6 0 11 -7 11 -16 0 -10 5 -14 15 -10
9 3 18 -1 21 -9 4 -8 12 -15 20 -15 12 0 12 4 2 19 -7 11 -17 19 -22 18 -6 -1
-10 5 -11 13 0 18 -30 26 -40 11z"/>
<path d="M8375 1080 c-3 -5 1 -10 9 -10 9 0 16 5 16 10 0 6 -4 10 -9 10 -6 0
-13 -4 -16 -10z"/>
<path d="M8440 1054 c0 -8 5 -12 10 -9 6 3 10 10 10 16 0 5 -4 9 -10 9 -5 0
-10 -7 -10 -16z"/>
<path d="M8636 971 c-4 -5 -2 -12 3 -15 5 -4 12 -2 15 3 4 5 2 12 -3 15 -5 4
-12 2 -15 -3z"/>
<path d="M8246 931 c-4 -5 -2 -12 3 -15 5 -4 12 -2 15 3 4 5 2 12 -3 15 -5 4
-12 2 -15 -3z"/>
<path d="M8245 890 c3 -5 8 -10 11 -10 2 0 4 5 4 10 0 6 -5 10 -11 10 -5 0 -7
-4 -4 -10z"/>
<path d="M8240 846 c0 -8 4 -17 9 -20 5 -4 7 3 4 14 -6 23 -13 26 -13 6z"/>
<path d="M8280 849 c0 -5 9 -9 20 -9 11 0 20 2 20 4 0 2 -9 6 -20 9 -11 3 -20
1 -20 -4z"/>
<path d="M8341 824 c0 -11 3 -14 6 -6 3 7 2 16 -1 19 -3 4 -6 -2 -5 -13z"/>
<path d="M8370 800 c0 -5 17 -10 38 -9 30 0 33 2 17 9 -28 12 -55 12 -55 0z"/>
<path d="M7890 751 c0 -8 -6 -11 -16 -7 -8 3 -13 2 -9 -3 3 -5 -1 -12 -7 -14
-7 -3 -8 -6 -2 -6 16 -1 50 27 41 35 -4 4 -7 2 -7 -5z"/>
<path d="M7713 695 c0 -7 6 -11 14 -8 7 3 13 6 13 8 0 2 -6 5 -13 8 -8 3 -14
-1 -14 -8z"/>
<path d="M8380 703 c0 -5 4 -14 9 -21 7 -11 9 -11 14 1 3 8 3 18 0 21 -9 8
-23 7 -23 -1z"/>
<path d="M8424 694 c3 -8 6 -18 6 -20 0 -2 5 -4 10 -4 16 0 11 27 -6 34 -12 5
-15 2 -10 -10z"/>
<path d="M7660 645 c-14 -8 -20 -14 -14 -15 5 0 19 7 30 15 24 18 16 19 -16 0z"/>
<path d="M8476 613 c-3 -3 -3 -10 0 -14 7 -12 34 -11 34 0 0 11 -26 22 -34 14z"/>
<path d="M8690 567 c0 -18 2 -19 10 -7 7 11 10 5 11 -25 0 -29 2 -35 8 -21 7
19 8 19 14 -3 3 -14 10 -20 17 -16 7 5 8 10 3 14 -15 10 -35 50 -29 60 3 5 -3
11 -14 14 -15 4 -20 0 -20 -16z"/>
<path d="M8480 566 c0 -9 5 -16 10 -16 6 0 10 4 10 9 0 6 -4 13 -10 16 -5 3
-10 -1 -10 -9z"/>
<path d="M8550 550 c0 -5 5 -10 10 -10 6 0 10 5 10 10 0 6 -4 10 -10 10 -5 0
-10 -4 -10 -10z"/>
<path d="M8400 540 c0 -5 5 -10 10 -10 6 0 10 5 10 10 0 6 -4 10 -10 10 -5 0
-10 -4 -10 -10z"/>
<path d="M8661 540 c-1 -26 11 -60 21 -60 6 0 8 9 5 20 -3 10 0 21 7 24 6 2 4
5 -6 5 -9 1 -19 7 -21 14 -4 8 -6 7 -6 -3z"/>
<path d="M7675 489 c-4 -6 -5 -12 -2 -15 2 -3 7 2 10 11 7 17 1 20 -8 4z"/>
<path d="M8585 470 c3 -5 11 -10 16 -10 6 0 7 5 4 10 -3 6 -11 10 -16 10 -6 0
-7 -4 -4 -10z"/>
<path d="M8640 470 c0 -6 -4 -8 -10 -5 -5 3 -10 2 -10 -4 0 -5 5 -13 10 -16 6
-4 8 -11 5 -16 -4 -5 -2 -9 4 -9 16 0 22 18 9 23 -7 2 -10 8 -6 12 6 7 23 -2
74 -40 18 -13 30 1 15 18 -6 8 -9 23 -5 33 5 18 5 18 -10 -1 -16 -18 -17 -19
-46 -2 -18 11 -30 14 -30 7z"/>
<path d="M8520 460 c0 -5 5 -10 10 -10 6 0 10 5 10 10 0 6 -4 10 -10 10 -5 0
-10 -4 -10 -10z"/>
<path d="M8585 431 c-3 -5 -1 -12 5 -16 5 -3 10 1 10 9 0 18 -6 21 -15 7z"/>
<path d="M8665 420 c-3 -5 -1 -10 4 -10 6 0 11 5 11 10 0 6 -2 10 -4 10 -3 0
-8 -4 -11 -10z"/>
<path d="M8750 419 c0 -6 6 -9 14 -6 7 3 18 1 23 -4 10 -10 43 -2 43 10 0 3
-18 7 -40 8 -23 2 -40 -2 -40 -8z"/>
<path d="M8315 410 c-3 -5 -2 -10 4 -10 5 0 13 5 16 10 3 6 2 10 -4 10 -5 0
-13 -4 -16 -10z"/>
<path d="M8373 406 c19 -19 40 -21 35 -3 -3 6 -15 14 -28 15 -21 4 -22 2 -7
-12z"/>
<path d="M8420 405 c0 -2 9 -9 20 -15 16 -9 20 -8 20 5 0 8 -9 15 -20 15 -11
0 -20 -2 -20 -5z"/>
<path d="M9470 400 c0 -5 5 -10 11 -10 5 0 7 5 4 10 -3 6 -8 10 -11 10 -2 0
-4 -4 -4 -10z"/>
<path d="M8485 390 c-4 -6 8 -10 29 -10 20 0 36 5 36 10 0 6 -13 10 -29 10
-17 0 -33 -4 -36 -10z"/>
<path d="M8566 392 c-3 -6 -1 -14 5 -17 15 -10 25 3 12 16 -7 7 -13 7 -17 1z"/>
<path d="M8600 388 c0 -8 7 -21 15 -28 19 -16 19 -1 0 24 -12 16 -15 17 -15 4z"/>
<path d="M7520 386 c0 -2 8 -10 18 -17 15 -13 16 -12 3 4 -13 16 -21 21 -21
13z"/>
<path d="M8647 383 c-3 -5 -5 -21 -5 -36 0 -27 1 -27 18 -10 13 14 14 19 3 21
-19 5 -16 20 5 25 15 4 15 5 0 6 -9 0 -19 -2 -21 -6z"/>
<path d="M8700 381 c0 -5 -3 -16 -6 -25 -3 -9 -1 -16 5 -16 6 0 11 7 11 15 0
7 8 19 18 24 15 9 15 10 -5 11 -13 0 -23 -4 -23 -9z"/>
<path d="M8766 371 c10 -10 21 -14 23 -8 4 10 -17 27 -33 27 -5 0 -1 -8 10
-19z"/>
<path d="M8750 339 c0 -5 5 -7 10 -4 6 3 10 8 10 11 0 2 -4 4 -10 4 -5 0 -10
-5 -10 -11z"/>
<path d="M8340 320 c0 -5 5 -10 10 -10 6 0 10 5 10 10 0 6 -4 10 -10 10 -5 0
-10 -4 -10 -10z"/>
<path d="M8555 320 c-3 -5 1 -10 10 -10 9 0 13 5 10 10 -3 6 -8 10 -10 10 -2
0 -7 -4 -10 -10z"/>
<path d="M8606 307 c3 -10 9 -15 12 -12 3 3 0 11 -7 18 -10 9 -11 8 -5 -6z"/>
<path d="M7406 273 c-6 -14 -5 -15 5 -6 7 7 10 15 7 18 -3 3 -9 -2 -12 -12z"/>
<path d="M8340 280 c0 -5 5 -10 10 -10 6 0 10 5 10 10 0 6 -4 10 -10 10 -5 0
-10 -4 -10 -10z"/>
<path d="M9710 261 c-19 -16 -41 -26 -49 -23 -7 3 -18 -2 -23 -12 -5 -9 -13
-14 -19 -11 -12 8 -11 -2 3 -42 7 -18 16 -33 20 -33 12 0 9 13 -7 34 -22 29
-10 35 36 20 22 -8 45 -12 50 -9 5 4 9 -9 9 -27 0 -25 -3 -29 -10 -18 -7 12
-12 12 -22 2 -18 -18 -31 -15 -25 8 3 10 -1 24 -9 31 -12 9 -13 6 -8 -20 6
-26 4 -31 -14 -31 -11 0 -23 -7 -26 -16 -5 -13 -9 -14 -20 -5 -9 8 -22 8 -39
2 -14 -5 -28 -7 -32 -3 -8 8 -25 -18 -25 -40 0 -15 3 -16 28 -5 15 6 30 16 34
22 5 6 8 5 8 -2 0 -7 11 -12 24 -11 26 2 76 -20 76 -34 0 -4 -7 -8 -16 -8 -14
0 -14 -3 -4 -15 8 -10 31 -15 66 -15 47 0 53 3 57 23 l4 22 2 -22 c1 -16 7
-23 22 -23 11 0 29 10 40 23 17 20 20 20 31 6 7 -9 25 -19 41 -23 22 -5 27 -3
27 12 0 17 -9 31 -50 80 -6 7 -10 22 -8 35 2 14 -3 22 -12 23 -8 1 -19 2 -24
3 -5 0 -3 7 3 15 10 11 7 17 -11 30 -12 9 -26 16 -31 16 -13 0 -34 24 -41 48
-9 28 -15 28 -56 -7z m87 -76 c3 -9 -1 -23 -9 -33 -9 -9 -13 -23 -11 -29 3 -7
-2 -13 -11 -13 -12 0 -14 5 -6 25 7 19 6 23 -5 18 -20 -7 -19 6 2 29 20 22 32
23 40 3z m-37 -139 c0 -16 -18 -31 -27 -22 -8 8 5 36 17 36 5 0 10 -6 10 -14z
m70 -10 c0 -2 -7 -6 -15 -10 -8 -3 -15 -1 -15 4 0 6 7 10 15 10 8 0 15 -2 15
-4z"/>
<path d="M8546 267 c3 -10 9 -15 12 -12 3 3 0 11 -7 18 -10 9 -11 8 -5 -6z"/>
<path d="M8756 272 c-2 -4 18 -8 45 -9 27 0 49 4 49 8 0 11 -87 12 -94 1z"/>
<path d="M8866 271 c-3 -5 2 -7 13 -4 16 4 19 1 14 -16 -3 -13 -1 -21 7 -21
18 0 7 44 -12 48 -9 2 -19 -1 -22 -7z"/>
<path d="M8485 260 c3 -5 8 -10 11 -10 2 0 4 5 4 10 0 6 -5 10 -11 10 -5 0 -7
-4 -4 -10z"/>
<path d="M8580 256 c0 -9 5 -16 10 -16 6 0 10 4 10 9 0 6 -4 13 -10 16 -5 3
-10 -1 -10 -9z"/>
<path d="M9090 251 c0 -12 5 -21 10 -21 6 0 10 6 10 14 0 8 -4 18 -10 21 -5 3
-10 -3 -10 -14z"/>
<path d="M9030 229 c-12 -8 -10 -9 8 -4 15 4 22 2 22 -7 0 -7 9 -19 20 -26 27
-16 28 8 2 31 -21 20 -31 21 -52 6z"/>
<path d="M9162 215 c1 -14 8 -25 14 -25 7 0 9 10 6 25 -2 14 -8 25 -13 25 -5
0 -8 -11 -7 -25z"/>
<path d="M9277 234 c-8 -8 3 -34 14 -34 11 0 12 27 0 34 -4 3 -11 3 -14 0z"/>
<path d="M8860 220 c0 -5 5 -10 11 -10 5 0 7 5 4 10 -3 6 -8 10 -11 10 -2 0
-4 -4 -4 -10z"/>
<path d="M8920 190 c0 -5 5 -10 11 -10 5 0 7 5 4 10 -3 6 -8 10 -11 10 -2 0
-4 -4 -4 -10z"/>
<path d="M8960 185 c7 -8 19 -15 26 -15 8 0 11 6 8 15 -4 8 -15 15 -26 15 -17
0 -18 -3 -8 -15z"/>
<path d="M9541 174 c-13 -13 -19 -24 -14 -24 12 0 48 38 42 44 -2 3 -15 -6
-28 -20z"/>
<path d="M7231 173 c-16 -17 -11 -25 8 -14 7 5 12 13 10 19 -2 6 -10 4 -18 -5z"/>
<path d="M9276 172 c5 -21 3 -23 -15 -17 -26 8 -27 -5 -2 -27 18 -15 19 -15
24 10 3 15 1 34 -4 42 -7 11 -8 9 -3 -8z"/>
<path d="M9170 166 c0 -9 5 -16 10 -16 6 0 10 4 10 9 0 6 -4 13 -10 16 -5 3
-10 -1 -10 -9z"/>
<path d="M7790 160 c0 -5 5 -10 11 -10 5 0 7 5 4 10 -3 6 -8 10 -11 10 -2 0
-4 -4 -4 -10z"/>
<path d="M8150 160 c-9 -6 -10 -10 -3 -10 6 0 15 5 18 10 8 12 4 12 -15 0z"/>
<path d="M8435 150 c3 -5 8 -10 11 -10 2 0 4 5 4 10 0 6 -5 10 -11 10 -5 0 -7
-4 -4 -10z"/>
<path d="M9601 141 c-6 -11 -7 -22 -2 -25 5 -3 11 4 14 16 8 30 1 35 -12 9z"/>
<path d="M8525 140 c3 -5 8 -10 11 -10 2 0 4 5 4 10 0 6 -5 10 -11 10 -5 0 -7
-4 -4 -10z"/>
<path d="M8584 136 c23 -18 36 -20 36 -6 0 6 -4 10 -9 10 -5 0 -18 3 -28 6
-16 5 -16 4 1 -10z"/>
<path d="M7155 130 c3 -5 8 -10 11 -10 2 0 4 5 4 10 0 6 -5 10 -11 10 -5 0 -7
-4 -4 -10z"/>
<path d="M8945 130 c-3 -5 -1 -10 4 -10 6 0 11 5 11 10 0 6 -2 10 -4 10 -3 0
-8 -4 -11 -10z"/>
<path d="M9120 130 c0 -5 7 -10 15 -10 8 0 15 5 15 10 0 6 -7 10 -15 10 -8 0
-15 -4 -15 -10z"/>
<path d="M9215 110 c3 -5 8 -10 11 -10 2 0 4 5 4 10 0 6 -5 10 -11 10 -5 0 -7
-4 -4 -10z"/>
<path d="M7078 102 c-10 -2 -18 -8 -18 -13 0 -11 11 -11 30 1 18 11 11 18 -12
12z"/>
<path d="M9380 90 c0 -5 12 -10 26 -10 14 0 23 4 19 10 -3 6 -15 10 -26 10
-10 0 -19 -4 -19 -10z"/>
<path d="M9232 46 c2 -17 7 -22 18 -18 25 9 40 24 34 34 -3 5 -12 4 -20 -3
-10 -8 -14 -8 -14 0 0 6 -4 11 -10 11 -5 0 -9 -11 -8 -24z"/>
<path d="M9320 51 c0 -5 5 -13 10 -16 6 -3 10 -2 10 4 0 5 -4 13 -10 16 -5 3
-10 2 -10 -4z"/>
<path d="M9427 53 c-4 -3 -7 -11 -7 -17 0 -6 5 -5 12 2 6 6 9 14 7 17 -3 3 -9
2 -12 -2z"/>
<path d="M9511 43 c0 -5 4 -17 9 -28 8 -18 9 -17 9 8 1 15 -3 27 -9 27 -5 0
-10 -3 -9 -7z"/>
<path d="M9581 14 c0 -11 3 -14 6 -6 3 7 2 16 -1 19 -3 4 -6 -2 -5 -13z"/>
<path d="M9950 13 c0 -7 7 -13 15 -13 8 0 15 6 15 13 0 8 -7 14 -15 14 -8 0
-15 -6 -15 -14z"/>
</g>
</svg>
