<svg width="77" height="64" viewBox="0 0 77 64" fill="none" xmlns="http://www.w3.org/2000/svg">
<circle cx="32" cy="32" r="32" fill="#4CE0D7"/>
<path d="M52.854 19.5208C54.7276 19.8864 56.5875 20.7127 57.9373 22.0625C59.2872 23.4123 60.1135 25.2722 60.479 27.1458M54.1248 10.625C58.0175 11.0574 61.5203 12.9406 64.2915 15.7083C67.0627 18.476 68.9375 21.9829 69.3749 25.875M69.3735 44.8782V51.7655C69.3842 54.3983 67.0169 56.5968 64.3587 56.3571C41.4167 56.375 23.625 38.4181 23.643 15.63C23.4036 12.9861 25.5912 10.6277 28.2206 10.6252H35.1216C36.238 10.6143 37.3202 11.0088 38.1667 11.7353C40.5732 13.8008 42.121 20.8114 41.5255 23.5984C41.0605 25.7743 38.8671 27.2965 37.3759 28.7848C40.6506 34.5324 45.4189 39.2913 51.1779 42.5595C52.6691 41.0712 54.1944 38.8821 56.3746 38.4181C59.1714 37.8228 66.2271 39.3729 68.2843 41.7961C69.0138 42.6554 69.4015 43.7523 69.3735 44.8782Z" stroke="#262626" stroke-width="2.6" stroke-linecap="round" stroke-linejoin="round"/>
</svg>
